<?xml version="1.0" encoding="UTF-8" standalone="no"?>
<!-- Generator: Adobe Illustrator 15.0.2, SVG Export Plug-In . SVG Version: 6.00 Build 0)  -->

<svg
   xmlns:dc="http://purl.org/dc/elements/1.1/"
   xmlns:cc="http://creativecommons.org/ns#"
   xmlns:rdf="http://www.w3.org/1999/02/22-rdf-syntax-ns#"
   xmlns:svg="http://www.w3.org/2000/svg"
   xmlns="http://www.w3.org/2000/svg"
   xmlns:xlink="http://www.w3.org/1999/xlink"
   xmlns:sodipodi="http://sodipodi.sourceforge.net/DTD/sodipodi-0.dtd"
   xmlns:inkscape="http://www.inkscape.org/namespaces/inkscape"
   version="1.1"
   x="0px"
   y="0px"
   width="524.90503"
   height="340.67657"
   viewBox="0 0 524.90503 340.67658"
   enable-background="new 0 0 800 600"
   xml:space="preserve"
   id="svg2"
   inkscape:version="0.48.3.1 r9886"
   sodipodi:docname="schema-1.svg"><metadata
   id="metadata144"><rdf:RDF><cc:Work
       rdf:about=""><dc:format>image/svg+xml</dc:format><dc:type
         rdf:resource="http://purl.org/dc/dcmitype/StillImage" /><dc:title /></cc:Work></rdf:RDF></metadata><defs
   id="defs142">
	
		
	
	
	
	
		
	
		
<clipPath
   clipPathUnits="userSpaceOnUse"
   id="clipPath4229"><rect
     id="rect4231"
     x="-652.4967"
     y="54.694874"
     enable-background="new    "
     width="1312.5461"
     height="395.63071"
     style="opacity:0.89020003;fill:#50be1e;fill-opacity:0.653" /></clipPath><radialGradient
   inkscape:collect="always"
   xlink:href="#path3366-8_1_"
   id="radialGradient4233"
   gradientUnits="userSpaceOnUse"
   gradientTransform="matrix(22.3851,0,0,-12.1705,-215.3624,7576.4141)"
   cx="38.767101"
   cy="595.23932"
   r="1.4306999" /><linearGradient
   inkscape:collect="always"
   xlink:href="#path3068-5_1_"
   id="linearGradient4235"
   gradientUnits="userSpaceOnUse"
   gradientTransform="matrix(21.1429,0,0,-21.1429,-190.5992,12663.294)"
   x1="38.6348"
   y1="584.13281"
   x2="41.098801"
   y2="584.13281" /><linearGradient
   inkscape:collect="always"
   xlink:href="#path6922-9_1_"
   id="linearGradient4237"
   gradientUnits="userSpaceOnUse"
   gradientTransform="matrix(21.1429,0,0,-21.1429,-193.6304,12719.169)"
   x1="39.434101"
   y1="587.15332"
   x2="39.410198"
   y2="586.27722" /><linearGradient
   inkscape:collect="always"
   xlink:href="#SVGID_1_"
   id="linearGradient4239"
   gradientUnits="userSpaceOnUse"
   gradientTransform="matrix(-1,0.0025,0.0025,1,907.7802,392.3989)"
   x1="464.7373"
   y1="-88.555199"
   x2="541.69043"
   y2="-88.555199" /><linearGradient
   inkscape:collect="always"
   xlink:href="#SVGID_2_"
   id="linearGradient4241"
   gradientUnits="userSpaceOnUse"
   gradientTransform="matrix(-1,0.0025,0.0025,1,907.7802,392.3989)"
   x1="533.52539"
   y1="-80.210503"
   x2="503.00751"
   y2="-109.5438" /><linearGradient
   inkscape:collect="always"
   xlink:href="#SVGID_3_"
   id="linearGradient4243"
   gradientUnits="userSpaceOnUse"
   gradientTransform="matrix(-1,0.0025,0.0025,1,907.7802,392.3989)"
   x1="490.05469"
   y1="-90.693901"
   x2="490.05469"
   y2="-92.717201" /><linearGradient
   inkscape:collect="always"
   xlink:href="#SVGID_4_"
   id="linearGradient4245"
   gradientUnits="userSpaceOnUse"
   gradientTransform="matrix(-1,0,0,1,962.6055,0)"
   x1="521.03522"
   y1="306.4238"
   x2="567.69141"
   y2="306.4238" />
	
	
	
	
	
	
	
	
	
	
	
		<linearGradient
   gradientTransform="matrix(-1,0.0025,0.0025,1,907.7802,392.3989)"
   y2="-88.555199"
   x2="541.69043"
   y1="-88.555199"
   x1="464.7373"
   gradientUnits="userSpaceOnUse"
   id="SVGID_1_">
		<stop
   id="stop99"
   style="stop-color:#FCEE21"
   offset="0" />
		<stop
   id="stop101"
   style="stop-color:#FBB03B"
   offset="1" />
	</linearGradient>
	
	
		<linearGradient
   gradientTransform="matrix(-1,0.0025,0.0025,1,907.7802,392.3989)"
   y2="-109.5438"
   x2="503.00751"
   y1="-80.210503"
   x1="533.52539"
   gradientUnits="userSpaceOnUse"
   id="SVGID_2_">
		<stop
   id="stop106"
   style="stop-color:#FCEE21"
   offset="0" />
		<stop
   id="stop108"
   style="stop-color:#FBB03B"
   offset="1" />
	</linearGradient>
	
	
	
	
		<linearGradient
   gradientTransform="matrix(-1,0.0025,0.0025,1,907.7802,392.3989)"
   y2="-92.717201"
   x2="490.05469"
   y1="-90.693901"
   x1="490.05469"
   gradientUnits="userSpaceOnUse"
   id="SVGID_3_">
		<stop
   id="stop117"
   style="stop-color:#FCEE21"
   offset="0" />
		<stop
   id="stop119"
   style="stop-color:#FBB03B"
   offset="1" />
	</linearGradient>
	
	
		<linearGradient
   gradientTransform="matrix(-1,0,0,1,962.6055,0)"
   y2="306.4238"
   x2="567.69141"
   y1="306.4238"
   x1="521.03522"
   gradientUnits="userSpaceOnUse"
   id="SVGID_4_">
		<stop
   id="stop124"
   style="stop-color:#FCEE21"
   offset="0" />
		<stop
   id="stop126"
   style="stop-color:#FBB03B"
   offset="1" />
	</linearGradient>
	
	
	
	
	
	
	
<linearGradient
   inkscape:collect="always"
   xlink:href="#SVGID_4_"
   id="linearGradient4266"
   gradientUnits="userSpaceOnUse"
   gradientTransform="matrix(-1,0,0,1,781.5005,-65.324996)"
   x1="521.03522"
   y1="306.4238"
   x2="567.69141"
   y2="306.4238" /><linearGradient
   inkscape:collect="always"
   xlink:href="#SVGID_3_"
   id="linearGradient4269"
   gradientUnits="userSpaceOnUse"
   gradientTransform="matrix(-1,0.0025,0.0025,1,726.6752,327.0739)"
   x1="490.05469"
   y1="-90.693901"
   x2="490.05469"
   y2="-92.717201" /><linearGradient
   inkscape:collect="always"
   xlink:href="#SVGID_2_"
   id="linearGradient4274"
   gradientUnits="userSpaceOnUse"
   gradientTransform="matrix(-1,0.0025,0.0025,1,726.6752,327.0739)"
   x1="533.52539"
   y1="-80.210503"
   x2="503.00751"
   y2="-109.5438" /><linearGradient
   inkscape:collect="always"
   xlink:href="#SVGID_1_"
   id="linearGradient4277"
   gradientUnits="userSpaceOnUse"
   gradientTransform="matrix(-1,0.0025,0.0025,1,726.6752,327.0739)"
   x1="464.7373"
   y1="-88.555199"
   x2="541.69043"
   y2="-88.555199" />
	
		
	
	
	
	
	
		
	
	
		
	
	
	
	

	
		
	
	
	
	
	
		
	

	
	
<clipPath
   clipPathUnits="userSpaceOnUse"
   id="clipPath4320"><rect
     id="rect4322"
     x="83.437996"
     y="226.993"
     width="524.90503"
     height="98.136002"
     style="fill:#6c7eb7" /></clipPath></defs><sodipodi:namedview
   pagecolor="#ffffff"
   bordercolor="#666666"
   borderopacity="1"
   objecttolerance="10"
   gridtolerance="10"
   guidetolerance="10"
   inkscape:pageopacity="0"
   inkscape:pageshadow="2"
   inkscape:window-width="1920"
   inkscape:window-height="1021"
   id="namedview140"
   showgrid="false"
   inkscape:zoom="1.1125147"
   inkscape:cx="354.10648"
   inkscape:cy="308.34217"
   inkscape:window-x="0"
   inkscape:window-y="27"
   inkscape:window-maximized="1"
   inkscape:current-layer="svg2"
   fit-margin-top="0"
   fit-margin-left="0"
   fit-margin-right="0"
   fit-margin-bottom="0" />
<rect
   style="opacity:0.89020003;fill:#50be1e;fill-opacity:0.653"
   height="157.668"
   width="523.08002"
   enable-background="new    "
   y="175.30699"
   x="1.2200006"
   id="rect5947-4" /><g
   style="opacity:0.6"
   transform="matrix(0.39852315,0,0,0.39852315,261.25505,153.50983)"
   id="g19979"
   clip-path="url(#clipPath4229)">
		
			<g
   transform-center-y="-50"
   transform-center-x="117.14286"
   transform="matrix(1.25,0,0,1.25,267.55217,-436.06568)"
   id="g19927">
			<path
   style="fill:#ffffff"
   inkscape:connector-curvature="0"
   d="m -562.012,535.427 c -11.539,-0.312 -20.353,0.761 -27.887,3.938 -2.143,0.906 -5.555,0.927 -5.906,3.611 1.178,1.233 1.359,3.074 2.296,4.593 1.8,2.911 4.838,6.812 7.545,8.857 2.962,2.235 6.014,4.628 9.189,6.561 5.647,3.444 11.951,5.411 17.386,8.863 3.207,2.031 6.388,4.593 9.517,6.887 1.545,1.133 2.585,2.897 4.59,3.609 0,-0.11 0,-0.218 0,-0.329 -1.054,-1.339 -1.326,-3.188 -2.295,-4.593 -1.422,-1.421 -2.843,-2.843 -4.267,-4.264 -4.17,-5.536 -9.462,-10.398 -15.09,-14.436 -4.487,-3.221 -14.533,-7.573 -16.404,-12.795 -0.112,-0.112 -0.218,-0.22 -0.329,-0.329 3.181,-0.357 6.908,-1.508 9.845,-2.296 4.931,-1.323 9.342,-0.98 14.433,-2.298 2.299,-0.655 4.593,-1.311 6.892,-1.97 0,-0.435 0,-0.87 0,-1.31 -2.576,-2.643 -4.412,-6.138 -7.218,-8.531 -7.347,-6.256 -15.367,-12.507 -23.622,-17.718 -4.581,-2.891 -10.24,-4.769 -15.092,-7.219 -1.634,-0.822 -4.502,-1.251 -5.579,-2.625 -2.55,-3.249 -3.939,-7.37 -5.906,-11.155 -4.118,-7.93 -8.164,-16.593 -11.811,-24.934 -2.49,-5.691 -4.115,-11.302 -7.218,-16.406 -14.898,-24.494 -30.932,-39.277 -55.775,-53.808 -5.283,-3.091 -11.647,-4.312 -18.373,-5.907 -3.608,-0.218 -7.218,-0.436 -10.825,-0.656 -2.203,-0.92 -4.495,-3.616 -6.561,-4.921 -8.231,-5.2 -29.34,-16.506 -35.435,-1.641 -3.848,9.385 5.752,18.541 9.186,23.296 2.411,3.336 5.496,7.077 7.215,10.828 1.136,2.465 1.33,4.936 2.299,7.545 2.388,6.428 4.462,13.419 7.547,19.358 1.558,3.006 3.278,6.17 5.25,8.858 1.21,1.649 3.281,2.376 3.607,4.923 -2.025,2.834 -2.141,7.235 -3.28,10.827 -5.127,16.167 -3.193,36.264 4.266,48.23 2.29,3.674 7.68,11.552 15.092,8.53 6.482,-2.641 5.035,-10.825 6.889,-18.044 0.422,-1.637 0.164,-2.841 0.986,-3.936 0,0.109 0,0.218 0,0.327 1.968,3.937 3.936,7.874 5.906,11.81 4.37,7.04 12.126,14.397 18.7,19.361 3.409,2.572 6.091,7.024 10.499,8.531 0,-0.112 0,-0.22 0,-0.329 -0.109,0 -0.218,0 -0.326,0 -0.854,-1.331 -2.193,-1.882 -3.282,-2.954 -2.568,-2.517 -5.424,-5.648 -7.547,-8.531 -5.977,-8.116 -11.261,-17 -16.075,-26.246 -2.298,-4.416 -4.298,-9.287 -6.235,-13.78 -0.748,-1.734 -0.739,-4.352 -2.296,-5.25 -2.123,3.292 -5.249,5.956 -6.892,9.842 -2.624,6.215 -2.962,13.795 -3.933,21.655 -0.576,0.208 -0.32,0.065 -0.66,0.327 -4.571,-1.102 -6.174,-5.805 -7.871,-9.841 -4.298,-10.208 -5.095,-26.64 -1.314,-38.389 0.976,-3.039 5.397,-12.612 3.607,-15.419 -0.851,-2.802 -3.671,-4.423 -5.247,-6.564 -1.952,-2.646 -3.9,-6.13 -5.252,-9.186 -3.514,-7.959 -5.156,-16.89 -8.858,-24.935 -1.767,-3.845 -4.76,-7.738 -7.217,-11.155 -2.72,-3.786 -5.765,-6.576 -7.875,-11.155 -0.751,-1.628 -1.768,-4.232 -0.656,-5.906 0.355,-1.129 0.854,-1.6 1.968,-1.969 1.904,-1.467 7.203,0.488 9.186,1.312 5.262,2.185 9.654,4.267 14.11,7.218 2.14,1.419 4.304,4.163 6.889,4.923 0.982,0 1.968,0 2.951,0 4.62,1.061 9.794,0.328 14.11,1.639 7.627,2.318 14.461,5.923 20.671,9.843 18.909,11.941 34.369,28.939 44.946,49.216 1.702,3.263 2.439,6.379 3.936,9.842 3.027,6.984 6.834,14.169 9.844,20.998 2.999,6.811 5.928,13.687 10.172,19.359 2.232,2.981 10.849,4.578 14.763,6.235 2.745,1.159 7.243,2.366 9.842,3.934 4.97,2.997 9.78,6.563 14.439,9.843 2.326,1.637 9.486,5.236 9.84,8.201 z"
   connector-curvature="0"
   id="path19929" />
		</g>
		<g
   transform="matrix(1.25,0,0,1.25,306.19467,-400.68765)"
   id="g19931">
			<path
   style="fill:#ffffff"
   inkscape:connector-curvature="0"
   d="m -739.58,380.449 c -2.407,-0.044 -4.11,0.264 -5.909,0.656 0,0.109 0,0.22 0,0.329 0.112,0 0.221,0 0.329,0 1.149,2.357 3.175,3.875 4.593,5.906 1.095,2.298 2.187,4.594 3.282,6.889 0.109,-0.109 0.22,-0.22 0.328,-0.328 2.032,-1.431 2.963,-3.721 2.951,-7.217 -0.814,-0.857 -0.933,-1.932 -1.639,-2.953 -0.939,-1.363 -2.752,-2.137 -3.935,-3.282 z"
   connector-curvature="0"
   id="path19933" />
		</g>
	</g><rect
   style="fill:#6c7eb7"
   height="98.136002"
   width="524.90503"
   y="-5.6843419e-14"
   x="-5.5770323e-07"
   id="rect5947" /><g
   label="Ebene 1"
   groupmode="layer"
   id="layer1"
   transform="translate(-181.105,-65.324996)">
		<g
   id="g24902">
			
				<radialGradient
   gradientUnits="userSpaceOnUse"
   gradientTransform="matrix(22.3851,0,0,-12.1705,-215.3624,7576.4141)"
   r="1.4306999"
   cy="595.23932"
   cx="38.767101"
   id="path3366-8_1_">
				<stop
   id="stop15"
   style="stop-color:#000000"
   offset="0" />
				<stop
   id="stop17"
   style="stop-color:#000000;stop-opacity:0"
   offset="1" />
			</radialGradient>
			
				<path
   inkscape:connector-curvature="0"
   style="fill:url(#radialGradient4233)"
   d="m 684.464,332.058 c 0,9.616 -14.338,17.413 -32.026,17.413 -17.687,0 -32.025,-7.797 -32.025,-17.413 l 0,0 c 0,-9.616 14.339,-17.413 32.025,-17.413 17.688,0 32.026,7.796 32.026,17.413 l 0,0 z"
   type="arc"
   cx="23.857143"
   cy="40"
   rx="17.142857"
   ry="8.5714283"
   id="path3366-8" />
			
				<linearGradient
   gradientTransform="matrix(21.1429,0,0,-21.1429,-190.5992,12663.294)"
   y2="584.13281"
   x2="41.098801"
   y1="584.13281"
   x1="38.6348"
   gradientUnits="userSpaceOnUse"
   id="path3068-5_1_">
				<stop
   id="stop21"
   style="stop-color:#729FCF"
   offset="0" />
				<stop
   id="stop23"
   style="stop-color:#BABDB6"
   offset="0.3158" />
				<stop
   id="stop25"
   style="stop-color:#3465A4"
   offset="1" />
			</linearGradient>
			
				<path
   inkscape:connector-curvature="0"
   style="fill:url(#linearGradient4235);stroke:#000000;stroke-width:0.75;stroke-miterlimit:10"
   d="m 652.076,281.625 c -13.869,0 -25.145,4.946 -25.145,11.028 0,0.437 0,40.35 0,40.805 0,6.082 11.275,11.028 25.145,11.028 13.867,0 25.594,-4.946 25.594,-11.028 0,-0.36 0,-40.445 0,-40.805 0,-6.083 -11.727,-11.028 -25.594,-11.028 l 0,0 z"
   stroke-miterlimit="10"
   nodetypes="csszssz"
   id="path3068-5" />
			
				<path
   style="opacity:0.54430003;fill:none;stroke:#000000;stroke-width:0.75;stroke-miterlimit:10"
   inkscape:connector-curvature="0"
   d="m 652.092,283 c -12.931,0 -23.445,4.61 -23.445,10.282 0,0.406 0,38.618 0,39.042 0,5.673 10.515,10.283 23.445,10.283 12.93,0 23.861,-4.61 23.861,-10.283 0,-0.336 0,-38.706 0,-39.042 0,-5.672 -10.932,-10.282 -23.861,-10.282 z"
   enable-background="new    "
   stroke-miterlimit="10"
   nodetypes="csszssz"
   id="path4174-0" />
			
				<path
   style="fill:#3465a4;stroke:#000000;stroke-width:0.75;stroke-miterlimit:10"
   inkscape:connector-curvature="0"
   d="m 675.719,292.503 c 0,5.116 -10.536,9.264 -23.532,9.264 -12.997,0 -23.533,-4.148 -23.533,-9.264 0,-5.117 10.536,-9.265 23.533,-9.265 12.996,10e-4 23.532,4.148 23.532,9.265 z"
   stroke-miterlimit="10"
   type="arc"
   cx="24"
   cy="14.071428"
   rx="12.857142"
   ry="5.5"
   id="path3364-7" />
			
				<linearGradient
   gradientTransform="matrix(21.1429,0,0,-21.1429,-193.6304,12719.169)"
   y2="586.27722"
   x2="39.410198"
   y1="587.15332"
   x1="39.434101"
   gradientUnits="userSpaceOnUse"
   id="path6922-9_1_">
				<stop
   id="stop31"
   style="stop-color:#FFFFFF"
   offset="0" />
				<stop
   id="stop33"
   style="stop-color:#FFFFFF;stop-opacity:0"
   offset="1" />
			</linearGradient>
			
				<path
   inkscape:connector-curvature="0"
   style="opacity:0.49370003;fill:url(#linearGradient4237)"
   d="m 633.91,300.696 0.631,29.619 8.066,2.27 -0.253,-29.494 c 0,0 3.655,0 9.58,-0.377 -9.204,-0.412 -19.733,-4.367 -23.317,-6.933 2.5,3.691 5.293,4.915 5.293,4.915 l 0,0 z"
   enable-background="new    "
   nodetypes="ccccccc"
   id="path6922-9" />
			<path
   style="fill:#204a87"
   inkscape:connector-curvature="0"
   d="m 631.836,328.384 h 1.344 v -5.319 l 2.096,4.639 c 0.238,0.557 0.579,0.764 1.24,0.764 0.662,0 0.98,-0.207 1.23,-0.764 l 2.086,-4.639 v 5.319 h 1.354 v -5.319 c 0,-0.517 -0.207,-0.766 -0.641,-0.899 -1.023,-0.31 -1.705,-0.04 -2.016,0.651 l -2.056,4.586 -1.982,-4.586 c -0.3,-0.691 -0.991,-0.961 -2.025,-0.651 -0.423,0.134 -0.63,0.383 -0.63,0.899 v 5.319 l 0,0 0,0 z"
   id="path12-0" />
			<path
   style="fill:#204a87"
   inkscape:connector-curvature="0"
   d="m 642.301,324.057 h 1.354 v 2.923 c -0.012,0.165 0.051,0.536 0.785,0.548 0.381,0.01 2.912,0 2.933,0 v -3.492 h 1.354 c 0,0 0,4.762 0,4.783 0,1.178 -1.456,1.436 -2.138,1.446 h -4.256 v -0.899 c 0.01,0 4.256,0 4.266,0 0.867,-0.093 0.765,-0.527 0.765,-0.672 v -0.351 H 644.5 c -1.332,-0.01 -2.189,-0.6 -2.199,-1.271 0,-0.061 0.031,-2.996 0,-3.015 l 0,0 0,0 z"
   id="path14-5" />
			<path
   style="fill:#204a87"
   inkscape:connector-curvature="0"
   d="m 671.327,320.668 c -0.827,-0.021 -1.467,0.063 -2.005,0.289 -0.154,0.063 -0.402,0.063 -0.423,0.258 0.083,0.083 0.093,0.217 0.165,0.33 0.124,0.207 0.342,0.486 0.537,0.631 0.217,0.165 0.434,0.33 0.661,0.475 0.403,0.248 0.857,0.393 1.251,0.641 0.227,0.145 0.454,0.331 0.682,0.486 0.113,0.082 0.186,0.216 0.33,0.268 0,-0.01 0,-0.02 0,-0.031 -0.073,-0.092 -0.094,-0.227 -0.166,-0.33 -0.104,-0.103 -0.207,-0.196 -0.31,-0.3 -0.3,-0.402 -0.671,-0.753 -1.074,-1.043 -0.331,-0.226 -1.054,-0.536 -1.188,-0.919 10e-4,0 -0.01,-0.011 -0.021,-0.021 0.228,-0.021 0.496,-0.104 0.714,-0.165 0.351,-0.094 0.67,-0.072 1.033,-0.166 0.164,-0.041 0.33,-0.094 0.494,-0.145 0,-0.031 0,-0.063 0,-0.093 -0.185,-0.187 -0.319,-0.435 -0.516,-0.61 -0.527,-0.453 -1.105,-0.898 -1.705,-1.27 -0.32,-0.207 -0.733,-0.341 -1.074,-0.517 -0.123,-0.062 -0.33,-0.093 -0.402,-0.196 -0.186,-0.228 -0.289,-0.527 -0.424,-0.795 -0.299,-0.568 -0.588,-1.199 -0.846,-1.799 -0.188,-0.401 -0.301,-0.805 -0.527,-1.177 -1.064,-1.755 -2.222,-2.819 -3.998,-3.863 -0.383,-0.217 -0.836,-0.31 -1.322,-0.423 -0.258,-0.012 -0.516,-0.031 -0.775,-0.043 -0.164,-0.07 -0.33,-0.268 -0.475,-0.36 -0.588,-0.372 -2.106,-1.177 -2.541,-0.114 -0.279,0.672 0.414,1.332 0.65,1.674 0.176,0.238 0.403,0.506 0.527,0.775 0.072,0.176 0.094,0.361 0.166,0.547 0.164,0.455 0.319,0.961 0.537,1.385 0.113,0.217 0.237,0.443 0.381,0.641 0.084,0.113 0.229,0.164 0.259,0.35 -0.144,0.208 -0.154,0.518 -0.238,0.775 -0.371,1.168 -0.227,2.613 0.3,3.471 0.166,0.258 0.559,0.826 1.086,0.609 0.464,-0.186 0.361,-0.774 0.496,-1.291 0.03,-0.123 0.01,-0.207 0.071,-0.289 0,0.01 0,0.021 0,0.021 0.144,0.29 0.288,0.567 0.423,0.857 0.32,0.507 0.878,1.032 1.344,1.384 0.248,0.186 0.443,0.507 0.754,0.621 0,-0.012 0,-0.021 0,-0.031 -0.01,0 -0.01,0 -0.021,0 -0.061,-0.094 -0.154,-0.135 -0.236,-0.207 -0.187,-0.186 -0.393,-0.413 -0.537,-0.62 -0.435,-0.578 -0.816,-1.219 -1.157,-1.88 -0.165,-0.32 -0.31,-0.672 -0.444,-0.992 -0.063,-0.123 -0.063,-0.309 -0.165,-0.371 -0.155,0.227 -0.383,0.424 -0.496,0.702 -0.196,0.444 -0.217,0.991 -0.289,1.56 -0.042,0.01 -0.021,0 -0.042,0.021 -0.33,-0.082 -0.443,-0.424 -0.568,-0.713 -0.309,-0.733 -0.361,-1.91 -0.092,-2.758 0.072,-0.217 0.382,-0.898 0.258,-1.105 -0.063,-0.196 -0.27,-0.311 -0.383,-0.465 -0.135,-0.197 -0.279,-0.444 -0.371,-0.662 -0.248,-0.578 -0.373,-1.219 -0.641,-1.797 -0.124,-0.27 -0.342,-0.548 -0.517,-0.795 -0.196,-0.279 -0.413,-0.476 -0.568,-0.807 -0.051,-0.113 -0.124,-0.299 -0.041,-0.423 0.021,-0.083 0.062,-0.113 0.146,-0.134 0.133,-0.113 0.516,0.031 0.65,0.092 0.381,0.155 0.701,0.3 1.021,0.518 0.145,0.104 0.301,0.299 0.486,0.352 0.072,0 0.145,0 0.217,0 0.33,0.07 0.703,0.02 1.012,0.113 0.547,0.176 1.043,0.433 1.488,0.713 1.354,0.857 2.469,2.076 3.223,3.531 0.124,0.238 0.176,0.455 0.289,0.703 0.217,0.506 0.485,1.023 0.703,1.519 0.217,0.485 0.423,0.981 0.732,1.385 0.155,0.217 0.775,0.33 1.055,0.444 0.205,0.092 0.526,0.176 0.713,0.289 0.35,0.217 0.701,0.465 1.032,0.702 0.164,0.123 0.681,0.381 0.712,0.588 l 0,0 0,0 z"
   id="path16-3" />
			<path
   style="fill:#00546b"
   inkscape:connector-curvature="0"
   d="m 660.791,311.691 c -0.176,0 -0.3,0.021 -0.424,0.051 0,0 0,0.012 0,0.021 0.01,0 0.01,0 0.021,0 0.083,0.165 0.228,0.278 0.331,0.423 0.082,0.165 0.154,0.331 0.238,0.495 0.01,-0.009 0.02,-0.02 0.02,-0.02 0.145,-0.104 0.217,-0.269 0.217,-0.517 -0.063,-0.073 -0.072,-0.144 -0.123,-0.217 -0.064,-0.102 -0.198,-0.154 -0.28,-0.236 l 0,0 0,0 z"
   id="path18-4" />
			<path
   style="fill:#f57900"
   inkscape:connector-curvature="0"
   d="m 649.758,328.384 h 3.885 c 0.454,0 0.889,-0.093 1.24,-0.259 0.588,-0.268 0.867,-0.629 0.867,-1.104 v -0.992 c 0,-0.382 -0.32,-0.743 -0.961,-0.991 -0.33,-0.124 -0.744,-0.196 -1.146,-0.196 h -1.632 c -0.548,0 -0.806,-0.165 -0.878,-0.526 -0.011,-0.041 -0.011,-0.084 -0.011,-0.124 v -0.609 c 0,-0.03 0,-0.073 0.011,-0.114 0.072,-0.279 0.217,-0.352 0.691,-0.402 0.042,0 0.094,0 0.125,0 h 3.852 v -0.899 h -3.78 c -0.548,0 -0.837,0.03 -1.095,0.114 -0.795,0.248 -1.146,0.641 -1.146,1.332 v 0.785 c 0,0.609 0.682,1.126 1.838,1.25 0.125,0.01 0.26,0.01 0.394,0.01 h 1.394 c 0.052,0 0.104,0 0.146,0.011 0.423,0.042 0.609,0.114 0.733,0.269 0.082,0.083 0.104,0.156 0.104,0.248 v 0.785 c 0,0.093 -0.063,0.217 -0.187,0.32 -0.124,0.103 -0.319,0.176 -0.579,0.187 -0.051,0 -0.082,0.011 -0.134,0.011 l -3.729,-0.001 v 0.895 l -0.002,0 0,0 z"
   id="path20-1" />
			<path
   style="fill:#f57900"
   inkscape:connector-curvature="0"
   d="m 664.158,326.824 c 0,0.919 0.691,1.436 2.076,1.539 0.134,0.01 0.258,0.021 0.393,0.021 h 3.512 v -0.897 h -3.543 c -0.785,0 -1.084,-0.197 -1.084,-0.672 v -4.649 h -1.354 v 4.658 l 0,0 0,0 z"
   id="path22-0" />
			<path
   style="fill:#f57900"
   inkscape:connector-curvature="0"
   d="m 656.607,326.866 v -3.202 c 0,-0.816 0.578,-1.313 1.704,-1.469 0.124,-0.01 0.248,-0.02 0.362,-0.02 h 2.562 c 0.134,0 0.247,0.01 0.382,0.02 1.125,0.156 1.693,0.652 1.693,1.468 l 0.001,3.202 c 0,0.662 -0.238,1.012 -0.796,1.25 l 1.322,1.198 h -1.56 l -1.075,-0.971 -1.084,0.062 h -1.445 c -0.238,0 -0.507,-0.031 -0.786,-0.104 -0.857,-0.236 -1.28,-0.691 -1.28,-1.434 l 0,0 0,0 z m 1.456,-0.073 c 0,0.041 0.021,0.083 0.031,0.135 0.072,0.371 0.423,0.578 0.96,0.578 h 1.22 l -1.115,-1.012 h 1.56 l 0.98,0.888 c 0.186,-0.103 0.301,-0.248 0.342,-0.435 0.01,-0.041 0.01,-0.092 0.01,-0.133 v -3.068 c 0,-0.041 0,-0.082 -0.01,-0.124 -0.072,-0.352 -0.424,-0.548 -0.951,-0.548 h -2.035 c -0.599,0 -0.991,0.259 -0.991,0.672 v 3.047 l -10e-4,0 0,0 z"
   id="path24-4" />
			<path
   style="fill:#f57900"
   inkscape:connector-curvature="0"
   d="m 670.759,328.395 h 0.196 v -0.754 h 0.259 v -0.155 h -0.724 v 0.155 h 0.269 v 0.754 l 0,0 z m 1.497,0 h 0.187 v -0.909 h -0.278 l -0.228,0.619 -0.248,-0.619 h -0.269 v 0.909 h 0.176 v -0.693 h 0.01 l 0.258,0.693 h 0.135 l 0.258,-0.693 v 0.693 l -10e-4,0 z"
   id="path26-8" />
			<rect
   style="fill:none"
   height="70.939003"
   width="70.939003"
   y="279.5"
   x="616.89502"
   id="rect2300" />
		</g>
	</g><image
   sodipodi:absref="/home/abaumgartner/presentation PG/D0C8AF16.jpg"
   xlink:href="D0C8AF16.jpg"
   y="97.675003"
   x="0.89500374"
   id="image45"
   height="9.0016003"
   width="521.01959"
   overflow="visible"
   style="opacity:0.5;overflow:visible">
	</image><image
   sodipodi:absref="/home/abaumgartner/presentation PG/D0C8AF1A.jpg"
   xlink:href="D0C8AF1A.jpg"
   y="331.67496"
   x="0.89500374"
   id="image47"
   height="9.0016003"
   width="521.01959"
   overflow="visible"
   style="opacity:0.5;overflow:visible">
	</image>
<rect
   style="opacity:0.66000001;fill:#f2f2f2;stroke:#050000;stroke-width:2"
   height="29.125"
   width="110.711"
   enable-background="new    "
   y="200.13802"
   x="31.793007"
   id="rect24376-3_4_" /><path
   style="fill:none;stroke:#000000"
   inkscape:connector-curvature="0"
   d="m 50.863004,229.829 v 80.618"
   connector-curvature="0"
   id="path24378-07_4_" /><path
   style="fill:none;stroke:#000000"
   inkscape:connector-curvature="0"
   d="m 87.318004,229.092 -0.593,82.585"
   connector-curvature="0"
   id="path24380-03_4_" /><path
   style="fill:none;stroke:#000000;stroke-width:1.01979995"
   inkscape:connector-curvature="0"
   d="m 110.383,229.092 -1.191,81.8"
   connector-curvature="0"
   id="path24384-05_4_" /><path
   style="fill:none;stroke:#000000"
   inkscape:connector-curvature="0"
   d="m 128.833,228.11 0.594,82.585"
   connector-curvature="0"
   id="path24386-7_4_" /><rect
   style="fill:none;stroke:#050000;stroke-width:2.49600005"
   height="110.527"
   width="110.712"
   y="200.13802"
   x="32.410004"
   id="rect24376-5-32_4_" /><g
   id="g4314"
   clip-path="url(#clipPath4320)"
   transform="translate(-83.437996,-226.993)"><ellipse
     transform="translate(-97.667,161.668)"
     id="ellipse3860"
     cx="443.922"
     cy="104.833"
     rx="86.176003"
     ry="44.858002"
     sodipodi:cx="443.922"
     sodipodi:cy="104.833"
     sodipodi:rx="86.176003"
     sodipodi:ry="44.858002"
     style="fill:#6c7eb7;stroke:#050000;stroke-width:5.5"
     d="m 530.098,104.833 c 0,24.77439 -38.58231,44.858 -86.176,44.858 -47.59369,0 -86.17601,-20.08361 -86.17601,-44.858 0,-24.77439 38.58232,-44.858002 86.17601,-44.858002 47.59369,0 86.176,20.083612 86.176,44.858002 z" /><path
     d="m 315.562,245.253 h -21.839 l -9.444,47.809 h 11.215 l 2.361,-12.395 h 10.625 c 10.034,0.59 21.248,-7.672 21.248,-21.839 0,-8.263 -4.722,-12.985 -14.166,-13.575 z m -8.263,26.56 h -7.083 l 2.951,-17.707 h 7.674 c 4.131,0 7.082,1.77 7.082,5.312 -0.59,10.035 -5.313,11.805 -10.624,12.395 z"
     id="path59"
     inkscape:connector-curvature="0"
     style="stroke:#ffffff;stroke-width:2;stroke-linejoin:round" /><path
     id="h"
     d="m 326.187,280.667 9.443,-47.81 h 11.215 l -2.361,12.396 h 10.625 c 9.444,0.59 12.985,5.312 11.805,11.214 l -4.132,24.2 h -11.805 l 4.132,-21.839 c 0.59,-2.952 0.59,-4.722 -3.541,-4.722 h -8.854 l -5.313,26.561 h -11.214 z"
     inkscape:connector-curvature="0"
     style="stroke:#ffffff;stroke-width:2;stroke-linejoin:round" /><path
     d="m 394.654,245.253 h -21.839 l -9.443,47.809 h 11.215 l 2.359,-12.395 h 10.625 c 10.034,0.59 21.25,-7.672 21.25,-21.839 0,-8.263 -4.722,-12.985 -14.167,-13.575 z m -8.262,26.56 h -7.083 l 2.951,-17.707 h 7.673 c 4.132,0 7.083,1.77 7.083,5.312 -0.59,10.035 -5.313,11.805 -10.624,12.395 z"
     id="path62"
     inkscape:connector-curvature="0"
     style="stroke:#ffffff;stroke-width:2;stroke-linejoin:round" /></g><text
   style="font-size:19.71870041px;font-family:MyriadPro-Regular"
   y="221.13402"
   x="60.43409"
   id="text64"
   font-size="19.7187"><tspan
     id="tspan3121"
     style="font-style:normal;font-variant:normal;font-weight:normal;font-stretch:normal;font-family:DejaVu Sans;-inkscape-font-specification:DejaVu Sans">Users</tspan></text>
<rect
   style="opacity:0.66000001;fill:#f2f2f2;stroke:#050000;stroke-width:2"
   height="29.125"
   width="110.711"
   enable-background="new    "
   y="200.13802"
   x="302.67203"
   id="rect24376-3_1_" /><path
   style="fill:none;stroke:#000000"
   inkscape:connector-curvature="0"
   d="m 321.743,229.829 v 80.618"
   connector-curvature="0"
   id="path24378-07_1_" /><path
   style="fill:none;stroke:#000000"
   inkscape:connector-curvature="0"
   d="m 358.2,229.092 -0.594,82.585"
   connector-curvature="0"
   id="path24380-03_1_" /><path
   style="fill:none;stroke:#000000;stroke-width:1.01979995"
   inkscape:connector-curvature="0"
   d="m 381.262,229.092 -1.19,81.8"
   connector-curvature="0"
   id="path24384-05_1_" /><path
   style="fill:none;stroke:#000000"
   inkscape:connector-curvature="0"
   d="m 399.713,228.11 0.596,82.585"
   connector-curvature="0"
   id="path24386-7_1_" /><rect
   style="fill:none;stroke:#050000;stroke-width:2.49600005"
   height="110.527"
   width="110.711"
   y="200.13802"
   x="303.29001"
   id="rect24376-5-32_1_" /><text
   style="font-size:19.71870041px;font-family:MyriadPro-Regular"
   y="221.13402"
   x="339.3139"
   id="text72"
   font-size="19.7187"><tspan
     id="tspan3123"
     style="font-style:normal;font-variant:normal;font-weight:normal;font-stretch:normal;font-family:DejaVu Sans;-inkscape-font-specification:DejaVu Sans">Test</tspan></text>
<path
   style="stroke:#000000"
   inkscape:connector-curvature="0"
   d="m 171.478,271.898 4.514,-4.513 -15.797,4.513 15.797,4.514 -4.514,-4.514 z"
   id="path24760_1_" /><line
   style="fill:none;stroke:#000000;stroke-width:0.80000001"
   id="line75"
   y2="271.759"
   x2="170.61798"
   y1="271.759"
   x1="269.06601" />
<path
   style="fill:#00ff00"
   inkscape:connector-curvature="0"
   id="path80"
   d="m 191.123,213.412 c 0.009,0.019 0.013,0.04 0.019,0.061 -0.007,-0.023 -0.013,-0.044 -0.02,-0.065 0,0.001 10e-4,0.002 10e-4,0.004 z" /><circle
   d="m 379.321,277.67499 c 0,2.20582 -1.78818,3.994 -3.994,3.994 -2.20583,0 -3.994,-1.78818 -3.994,-3.994 0,-2.20583 1.78817,-3.994 3.994,-3.994 2.20582,0 3.994,1.78817 3.994,3.994 z"
   style="fill:none"
   sodipodi:ry="3.994"
   sodipodi:rx="3.994"
   sodipodi:cy="277.67499"
   sodipodi:cx="375.327"
   id="circle82"
   r="3.994"
   cy="277.67499"
   cx="375.327"
   transform="translate(-181.105,-65.324996)" /><circle
   d="m 379.321,277.67499 c 0,2.20582 -1.78818,3.994 -3.994,3.994 -2.20583,0 -3.994,-1.78818 -3.994,-3.994 0,-2.20583 1.78817,-3.994 3.994,-3.994 2.20582,0 3.994,1.78817 3.994,3.994 z"
   style="fill:none"
   sodipodi:ry="3.994"
   sodipodi:rx="3.994"
   sodipodi:cy="277.67499"
   sodipodi:cx="375.327"
   id="circle84"
   r="3.994"
   cy="277.67499"
   cx="375.327"
   transform="translate(-181.105,-65.324996)" /><circle
   d="m 379.321,277.67499 c 0,2.20582 -1.78818,3.994 -3.994,3.994 -2.20583,0 -3.994,-1.78818 -3.994,-3.994 0,-2.20583 1.78817,-3.994 3.994,-3.994 2.20582,0 3.994,1.78817 3.994,3.994 z"
   style="fill:none"
   sodipodi:ry="3.994"
   sodipodi:rx="3.994"
   sodipodi:cy="277.67499"
   sodipodi:cx="375.327"
   id="circle86"
   r="3.994"
   cy="277.67499"
   cx="375.327"
   transform="translate(-181.105,-65.324996)" /><circle
   d="m 379.321,277.67499 c 0,2.20582 -1.78818,3.994 -3.994,3.994 -2.20583,0 -3.994,-1.78818 -3.994,-3.994 0,-2.20583 1.78817,-3.994 3.994,-3.994 2.20582,0 3.994,1.78817 3.994,3.994 z"
   style="fill:none"
   sodipodi:ry="3.994"
   sodipodi:rx="3.994"
   sodipodi:cy="277.67499"
   sodipodi:cx="375.327"
   id="circle88"
   r="3.994"
   cy="277.67499"
   cx="375.327"
   transform="translate(-181.105,-65.324996)" /><circle
   d="m 379.321,277.67499 c 0,2.20582 -1.78818,3.994 -3.994,3.994 -2.20583,0 -3.994,-1.78818 -3.994,-3.994 0,-2.20583 1.78817,-3.994 3.994,-3.994 2.20582,0 3.994,1.78817 3.994,3.994 z"
   style="fill:none"
   sodipodi:ry="3.994"
   sodipodi:rx="3.994"
   sodipodi:cy="277.67499"
   sodipodi:cx="375.327"
   id="circle90"
   r="3.994"
   cy="277.67499"
   cx="375.327"
   transform="translate(-181.105,-65.324996)" /><circle
   d="m 379.321,277.67499 c 0,2.20582 -1.78818,3.994 -3.994,3.994 -2.20583,0 -3.994,-1.78818 -3.994,-3.994 0,-2.20583 1.78817,-3.994 3.994,-3.994 2.20582,0 3.994,1.78817 3.994,3.994 z"
   style="fill:none"
   sodipodi:ry="3.994"
   sodipodi:rx="3.994"
   sodipodi:cy="277.67499"
   sodipodi:cx="375.327"
   id="circle92"
   r="3.994"
   cy="277.67499"
   cx="375.327"
   transform="translate(-181.105,-65.324996)" /><path
   style="fill:#7f6a6a"
   inkscape:connector-curvature="0"
   id="path94"
   d="m 201.575,224.939 c -8.211,0.021 -14.874,6.719 -14.854,14.93 0.021,8.21 6.717,14.873 14.928,14.854 8.211,-0.021 14.874,-6.717 14.854,-14.928 -0.02,-8.211 -6.717,-14.877 -14.928,-14.856 z m -7.34,20.263 c -2.952,0.008 -5.361,-2.389 -5.368,-5.34 -0.008,-2.952 2.39,-5.359 5.341,-5.366 2.953,-0.008 5.359,2.386 5.367,5.34 0.008,2.95 -2.388,5.36 -5.34,5.366 z" /><path
   style="fill:#f7931e"
   inkscape:connector-curvature="0"
   id="path96"
   d="m 184.058,239.874 c 0.024,9.68 7.918,17.534 17.598,17.51 6.708,-0.018 12.908,-3.954 15.814,-10.061 0.183,-0.445 0.613,-0.733 1.153,-0.725 l 6.511,-0.017 c 0.17,0.001 0.334,-0.062 0.462,-0.173 0,0 1.938,-1.696 2.274,-1.991 0.282,-0.001 0.721,-0.001 0.721,-0.001 0.202,0 0.396,-0.09 0.53,-0.241 0,0 0.726,-0.833 1.118,-1.284 0.26,0.49 0.607,1.144 0.607,1.144 0.123,0.231 0.363,0.375 0.624,0.374 l 6.547,-0.016 c 0.163,-0.001 0.321,-0.058 0.447,-0.162 0,0 1.495,-1.239 1.813,-1.502 0.401,0 2.962,-0.007 3.606,-0.01 0.239,0.45 0.682,1.281 0.682,1.281 0.121,0.23 0.361,0.376 0.622,0.374 l 0.692,-0.001 c 0.188,-0.002 0.366,-0.076 0.496,-0.207 l 1.45,-1.459 1.46,1.451 c 0.131,0.131 0.31,0.205 0.498,0.205 l 2.137,-0.006 c 0.188,-0.001 0.366,-0.076 0.497,-0.207 0,0 0.214,-0.215 0.424,-0.426 0.164,0.164 0.339,0.338 0.339,0.338 0.133,0.133 0.313,0.205 0.499,0.205 0.186,0 0.365,-0.074 0.497,-0.207 0,0 0.175,-0.176 0.336,-0.34 0.102,0.101 0.232,0.23 0.232,0.23 0.196,0.197 0.488,0.258 0.746,0.16 l 1.447,-0.561 1.895,-1.152 c 0.001,-0.001 0.001,-0.002 0.003,-0.004 l 2.097,-1.59 c 10e-4,-0.002 0,-0.004 0.005,-0.006 l 1.335,-1.405 c 0.125,-0.131 0.145,-0.245 0.143,-0.427 l -0.001,-0.797 -0.006,-2.652 -0.001,-0.428 c -10e-4,-0.189 -0.078,-0.371 -0.214,-0.504 -0.576,-0.557 -1.547,-1.346 -2.902,-1.936 -0.09,-0.04 -0.186,-0.059 -0.283,-0.06 l -40.699,0.087 c -0.421,-0.034 -0.794,-0.281 -0.973,-0.643 0,0 -0.01,-0.01 -0.011,-0.011 -2.999,-6.029 -9.037,-9.763 -15.76,-9.747 -9.677,0.028 -17.531,7.922 -17.507,17.6 z m 6.872,-0.016 c -0.004,-1.813 1.468,-3.293 3.283,-3.298 1.814,-0.004 3.293,1.469 3.298,3.281 0.004,1.813 -1.469,3.295 -3.281,3.299 -1.815,0.004 -3.295,-1.469 -3.3,-3.282 z" /><path
   style="fill:url(#linearGradient4277)"
   inkscape:connector-curvature="0"
   id="path103"
   d="m 184.763,239.872 c 0.023,9.305 7.585,16.83 16.89,16.807 6.702,-0.016 12.467,-3.951 15.165,-9.625 0.284,-0.685 0.956,-1.168 1.743,-1.17 0.022,0 0.039,0.011 0.061,0.012 l 10e-4,-0.002 6.511,-0.016 2.471,-2.164 0.985,-0.001 1.451,-1.662 0.55,-10e-4 0.879,1.655 6.546,-0.017 2.009,-1.662 4.285,-0.011 0.879,1.655 0.691,-10e-4 1.818,-1.831 -32.106,0.08 c -0.388,0 -1.781,-0.69 -1.781,-0.69 l -0.001,-0.139 c 0,0 1.39,-0.698 1.778,-0.699 l 44.878,-0.111 c 0.474,-0.419 0.906,-0.858 1.248,-1.31 l -0.002,-0.797 -47.361,0.117 c -0.389,0 -3.273,-0.696 -3.273,-0.696 l -0.003,-1.243 c 0,0 2.881,-0.71 3.27,-0.711 l 47.361,-0.119 v -0.428 c -0.521,-0.504 -1.433,-1.248 -2.694,-1.797 l -40.577,0.102 c -0.008,0 -0.017,0.005 -0.027,0.005 -0.013,0 -0.024,-0.006 -0.038,-0.005 l -0.112,0.001 -0.002,-0.017 c -0.678,-0.056 -1.261,-0.453 -1.548,-1.035 -0.002,-0.004 -0.008,-0.004 -0.01,-0.008 -2.765,-5.558 -8.5,-9.372 -15.127,-9.356 -9.307,0.024 -16.831,7.586 -16.808,16.89 z m 5.463,-0.013 c -0.005,-2.206 1.779,-3.998 3.986,-4.004 2.204,-0.004 3.997,1.777 4.004,3.984 0.006,2.207 -1.779,3.999 -3.985,4.005 -2.206,0.005 -4,-1.777 -4.005,-3.985 z" /><path
   style="fill:url(#linearGradient4274)"
   inkscape:connector-curvature="0"
   id="path110"
   d="m 187.425,239.866 c 0.02,7.836 6.386,14.17 14.222,14.15 7.835,-0.02 14.17,-6.385 14.15,-14.222 -0.02,-7.835 -6.386,-14.171 -14.222,-14.151 -7.834,0.02 -14.17,6.388 -14.15,14.223 z m 0.738,-0.002 c -0.009,-3.346 2.698,-6.064 6.044,-6.073 3.345,-0.008 6.064,2.697 6.071,6.043 0.01,3.345 -2.695,6.064 -6.041,6.072 -3.347,0.009 -6.067,-2.696 -6.074,-6.042 z" /><path
   style="fill:none"
   inkscape:connector-curvature="0"
   id="path112"
   d="m 218.255,233.398 -0.002,-0.017 c 0.038,0.001 0.075,0.015 0.114,0.016 l -0.112,0.001 z" /><path
   style="fill:#999999"
   inkscape:connector-curvature="0"
   id="path114"
   d="m 218.368,233.397 h 0.065 c -0.008,0 -0.017,0.005 -0.027,0.005 -0.013,0.001 -0.025,-0.005 -0.038,-0.005 z" /><path
   style="fill:url(#linearGradient4269)"
   inkscape:connector-curvature="0"
   id="path121"
   d="m 211.077,237.594 -0.003,-1.243 c 0,0 2.881,-0.71 3.27,-0.711 l 47.361,-0.119 0.007,2.652 -47.361,0.117 c -0.39,0 -3.274,-0.696 -3.274,-0.696 z" /><path
   style="fill:url(#linearGradient4266)"
   inkscape:connector-curvature="0"
   id="path128"
   d="m 213.81,241.229 -0.001,-0.139 c 0,0 1.39,-0.698 1.778,-0.699 l 44.878,-0.111 c -0.63,0.559 -1.333,1.077 -2.021,1.534 l -10.491,0.025 -0.128,-0.129 -0.128,0.129 -32.106,0.08 c -0.387,0 -1.781,-0.69 -1.781,-0.69 z" /><path
   style="fill:none"
   inkscape:connector-curvature="0"
   id="path130"
   d="m 191.165,213.549 c -0.018,-0.044 -0.026,-0.092 -0.042,-0.137 0.013,0.045 0.03,0.089 0.042,0.137 z" /><path
   style="fill:none"
   inkscape:connector-curvature="0"
   id="path132"
   d="m 194.213,209.06 c 1.814,-0.004 3.293,1.468 3.298,3.282 0.004,1.813 -1.469,3.294 -3.281,3.298 -0.524,0 -1.014,-0.133 -1.453,-0.349 0.04,-1.768 -0.458,-3.276 -1.526,-4.332 0.523,-1.114 1.648,-1.895 2.962,-1.899 z" /><path
   style="stroke:#000000"
   inkscape:connector-curvature="0"
   d="m 248.425,170.795 -6.519,-6.519 6.519,22.817 6.521,-22.817 -6.521,6.519 z"
   connector-curvature="0"
   id="path24760-16_2_" /><line
   style="fill:none;stroke:#000000;stroke-width:0.80000001"
   id="line135"
   y2="170.93102"
   x2="248.64101"
   y1="95.675003"
   x1="248.64101" /><path
   style="stroke:#000000"
   inkscape:connector-curvature="0"
   d="m 279.927,111.973 6.519,6.519 -6.519,-22.816996 -6.521,22.816996 6.521,-6.519 z"
   connector-curvature="0"
   id="path24760-16_1_" /><line
   style="fill:none;stroke:#000000;stroke-width:0.80000001"
   id="line138"
   y2="111.83601"
   x2="279.71103"
   y1="187.09203"
   x1="279.71103" />
</svg>