<?xml version="1.0" encoding="UTF-8" standalone="no"?>
<!-- Generator: Adobe Illustrator 15.0.2, SVG Export Plug-In . SVG Version: 6.00 Build 0)  -->

<svg
   xmlns:dc="http://purl.org/dc/elements/1.1/"
   xmlns:cc="http://creativecommons.org/ns#"
   xmlns:rdf="http://www.w3.org/1999/02/22-rdf-syntax-ns#"
   xmlns:svg="http://www.w3.org/2000/svg"
   xmlns="http://www.w3.org/2000/svg"
   xmlns:xlink="http://www.w3.org/1999/xlink"
   xmlns:sodipodi="http://sodipodi.sourceforge.net/DTD/sodipodi-0.dtd"
   xmlns:inkscape="http://www.inkscape.org/namespaces/inkscape"
   version="1.1"
   x="0px"
   y="0px"
   width="525.90503"
   height="335.17661"
   viewBox="0 0 525.90503 335.17661"
   enable-background="new 0 0 800 600"
   xml:space="preserve"
   id="svg2"
   inkscape:version="0.48.3.1 r9886"
   sodipodi:docname="schema-2.svg"><metadata
   id="metadata171"><rdf:RDF><cc:Work
       rdf:about=""><dc:format>image/svg+xml</dc:format><dc:type
         rdf:resource="http://purl.org/dc/dcmitype/StillImage" /><dc:title /></cc:Work></rdf:RDF></metadata><defs
   id="defs169"><linearGradient
   inkscape:collect="always"
   xlink:href="#rect5947_2_"
   id="linearGradient4163"
   gradientUnits="userSpaceOnUse"
   x1="181.105"
   y1="95.059601"
   x2="706.00983"
   y2="95.059601" />
	<linearGradient
   y2="95.059601"
   x2="706.00983"
   y1="95.059601"
   x1="181.105"
   gradientUnits="userSpaceOnUse"
   id="rect5947_2_">
		<stop
   id="stop6"
   style="stop-color:#5A9FD4"
   offset="0.0182" />
		<stop
   id="stop8"
   style="stop-color:#5A9FD4"
   offset="1" />
	</linearGradient>
	
	
		
	
<linearGradient
   inkscape:collect="always"
   xlink:href="#rect5947_2_"
   id="linearGradient4186"
   gradientUnits="userSpaceOnUse"
   x1="181.105"
   y1="95.059601"
   x2="706.00983"
   y2="95.059601"
   gradientTransform="translate(-180.605,-46.825001)" /><clipPath
   clipPathUnits="userSpaceOnUse"
   id="clipPath4188"><rect
     style="fill:#336791;stroke:#ffffff;stroke-width:0.75;stroke-miterlimit:10"
     id="rect4190"
     x="181.105"
     y="212.325"
     stroke-miterlimit="10"
     width="524.90503"
     height="159.97" /></clipPath></defs><sodipodi:namedview
   pagecolor="#ffffff"
   bordercolor="#666666"
   borderopacity="1"
   objecttolerance="10"
   gridtolerance="10"
   guidetolerance="10"
   inkscape:pageopacity="0"
   inkscape:pageshadow="2"
   inkscape:window-width="1920"
   inkscape:window-height="1021"
   id="namedview167"
   showgrid="false"
   inkscape:zoom="1.1125147"
   inkscape:cx="228.35675"
   inkscape:cy="42.000585"
   inkscape:window-x="0"
   inkscape:window-y="27"
   inkscape:window-maximized="1"
   inkscape:current-layer="svg2"
   fit-margin-top="0"
   fit-margin-left="0"
   fit-margin-right="0"
   fit-margin-bottom="0" />
<rect
   style="fill:url(#linearGradient4186);stroke:#ffffff"
   height="95.469002"
   width="524.90503"
   y="0.5"
   x="0.5"
   id="rect5947" /><rect
   style="fill:#336791;stroke:#ffffff;stroke-width:0.75;stroke-miterlimit:10"
   height="159.97"
   width="524.90503"
   stroke-miterlimit="10"
   y="165.5"
   x="0.5"
   id="rect5947_1_" /><g
   style="opacity:0.4"
   label="Ebene 1"
   groupmode="layer"
   id="layer1_6_"
   clip-path="url(#clipPath4188)"
   transform="translate(-180.605,-46.825001)">
		<g
   id="g35053_2_">
			<path
   style="stroke:#000000;stroke-width:2.5"
   inkscape:connector-curvature="0"
   d="m 235.354,282.103 c 0.667,-5.541 0.465,-6.35 4.59,-5.454 l 1.045,0.093 c 3.172,0.142 7.318,-0.511 9.757,-1.644 5.247,-2.434 8.355,-6.498 3.187,-5.429 -11.801,2.432 -12.61,-1.562 -12.61,-1.562 12.457,-18.485 17.664,-41.95 13.17,-47.695 -12.265,-15.666 -33.488,-8.256 -33.844,-8.066 l -0.111,0.022 c -2.334,-0.484 -4.942,-0.773 -7.874,-0.82 -5.339,-0.088 -9.39,1.398 -12.462,3.729 0,0 -37.867,-15.598 -36.104,19.617 0.375,7.492 10.736,56.687 23.1,41.825 4.519,-5.432 8.885,-10.026 8.885,-10.026 2.169,1.44 4.763,2.174 7.485,1.911 l 0.21,-0.18 c -0.065,0.676 -0.037,1.334 0.086,2.116 -3.187,3.559 -2.25,4.183 -8.615,5.49 -6.443,1.328 -2.657,3.694 -0.188,4.313 2.994,0.747 9.925,1.81 14.607,-4.746 l -0.185,0.749 c 1.249,0.997 1.164,7.183 1.339,11.599 0.18,4.418 0.476,8.541 1.375,10.972 0.9,2.429 1.963,8.688 10.33,6.897 6.995,-1.498 12.34,-3.652 12.827,-23.711"
   id="path3010-1_4_" />
			<path
   style="fill:#336791;stroke:#000000;stroke-width:2.5;stroke-miterlimit:10"
   inkscape:connector-curvature="0"
   d="m 253.934,269.669 c -11.801,2.432 -12.61,-1.563 -12.61,-1.563 12.457,-18.484 17.664,-41.951 13.17,-47.695 -12.261,-15.664 -33.488,-8.255 -33.841,-8.064 l -0.114,0.021 c -2.334,-0.483 -4.942,-0.772 -7.874,-0.821 -5.339,-0.086 -9.39,1.4 -12.462,3.731 0,0 -37.867,-15.6 -36.104,19.617 0.375,7.492 10.736,56.687 23.1,41.825 4.519,-5.432 8.881,-10.026 8.881,-10.026 2.171,1.44 4.763,2.174 7.489,1.911 l 0.21,-0.18 c -0.067,0.676 -0.037,1.334 0.086,2.116 -3.187,3.559 -2.25,4.183 -8.615,5.49 -6.443,1.328 -2.657,3.694 -0.191,4.313 2.997,0.747 9.928,1.81 14.61,-4.746 l -0.188,0.749 c 1.247,0.997 2.125,6.5 1.977,11.485 -0.145,4.988 -0.243,8.411 0.741,11.086 0.982,2.672 1.963,8.688 10.33,6.897 6.995,-1.5 10.614,-5.382 11.123,-11.856 0.354,-4.609 1.167,-3.926 1.216,-8.043 l 0.652,-1.95 c 0.746,-6.241 0.117,-8.257 4.426,-7.321 l 1.045,0.096 c 3.172,0.142 7.321,-0.511 9.757,-1.644 5.243,-2.432 8.354,-6.496 3.186,-5.428 l 0,0 0,0 z"
   stroke-miterlimit="10"
   id="path3012-5_2_" />
			<path
   style="fill:none;stroke:#ffffff;stroke-width:2.5;stroke-linecap:round;stroke-linejoin:round"
   inkscape:connector-curvature="0"
   d="m 210.176,273.247 c -0.328,11.615 0.08,23.312 1.217,26.154 1.138,2.842 3.569,8.371 11.94,6.578 6.994,-1.498 9.537,-4.397 10.64,-10.801 0.814,-4.715 2.381,-17.795 2.581,-20.479"
   id="path3014-4_2_" />
			<path
   style="fill:none;stroke:#ffffff;stroke-width:2.5;stroke-linecap:round;stroke-linejoin:round"
   inkscape:connector-curvature="0"
   d="m 200.145,215.018 c 0,0 -37.895,-15.486 -36.132,19.729 0.376,7.493 10.74,56.689 23.101,41.831 4.517,-5.435 8.604,-9.697 8.604,-9.697"
   id="path3016-1_2_" />
			<path
   style="fill:none;stroke:#ffffff;stroke-width:2.5;stroke-linecap:round;stroke-linejoin:round"
   inkscape:connector-curvature="0"
   d="m 220.611,212.193 c -1.314,0.41 21.078,-8.183 33.8,8.073 4.495,5.743 -0.711,29.209 -13.173,47.697"
   id="path3018-3_2_" />
			<path
   style="fill:none;stroke:#ffffff;stroke-width:2.5;stroke-linecap:round;stroke-linejoin:bevel"
   inkscape:connector-curvature="0"
   d="m 241.238,267.963 c 0,0 0.811,3.996 12.613,1.558 5.167,-1.067 2.055,2.996 -3.186,5.432 -4.305,1.998 -13.951,2.508 -14.111,-0.254 -0.406,-7.117 5.079,-4.952 4.684,-6.736 -0.36,-1.608 -2.809,-3.187 -4.432,-7.119 -1.415,-3.433 -19.424,-29.756 4.993,-25.847 0.894,-0.184 -6.367,-23.222 -29.22,-23.598 -22.844,-0.373 -22.093,28.095 -22.093,28.095"
   id="path3020-7_2_" />
			<path
   style="fill:none;stroke:#ffffff;stroke-width:2.5;stroke-linecap:round;stroke-linejoin:round"
   inkscape:connector-curvature="0"
   d="m 203.778,270.396 c -3.184,3.557 -2.248,4.182 -8.615,5.494 -6.442,1.326 -2.656,3.688 -0.187,4.307 2.998,0.747 9.924,1.81 14.607,-4.746 1.425,-1.995 -0.01,-5.181 -1.968,-5.991 -0.947,-0.393 -2.212,-0.885 -3.837,0.936 l 0,0 z"
   id="path3022-3_2_" />
			<path
   style="fill:none;stroke:#ffffff;stroke-width:2.5;stroke-linecap:round;stroke-linejoin:round"
   inkscape:connector-curvature="0"
   d="m 203.573,270.333 c -0.323,-2.091 0.686,-4.58 1.765,-7.493 1.625,-4.368 5.373,-8.738 2.373,-22.598 -2.233,-10.329 -17.216,-2.149 -17.224,-0.749 -0.011,1.399 0.678,7.098 -0.254,13.733 -1.208,8.66 5.512,15.982 13.25,15.232"
   id="path3024-5_2_" />
			<path
   style="fill:#ffffff;stroke:#ffffff;stroke-width:2.5"
   inkscape:connector-curvature="0"
   d="m 200.005,239.283 c -0.067,0.48 0.874,1.754 2.107,1.927 1.227,0.169 2.278,-0.827 2.344,-1.305 0.063,-0.479 -0.879,-1.005 -2.107,-1.177 -1.225,-0.172 -2.276,0.08 -2.344,0.555 l 0,0 0,0 z"
   id="path3026-8_2_" />
			<path
   style="fill:#ffffff;stroke:#ffffff;stroke-width:2.5"
   inkscape:connector-curvature="0"
   d="m 237.405,238.309 c 0.065,0.479 -0.877,1.754 -2.107,1.924 -1.226,0.173 -2.277,-0.824 -2.346,-1.302 -0.065,-0.48 0.875,-1.006 2.106,-1.177 1.227,-0.171 2.281,0.078 2.347,0.555 l 0,0 0,0 z"
   id="path3028-5_2_" />
			<path
   style="fill:none;stroke:#ffffff;stroke-width:2.5;stroke-linecap:round;stroke-linejoin:round"
   inkscape:connector-curvature="0"
   d="m 241.799,234.998 c 0.204,3.753 -0.81,6.308 -0.936,10.303 -0.188,5.803 2.767,12.448 -1.686,19.101"
   id="path3030-6_2_" />
			<path
   style="fill:none;stroke:#ffffff;stroke-width:2.5;stroke-linecap:round;stroke-linejoin:round"
   inkscape:connector-curvature="0"
   d="M 128.581,111"
   id="path3032-9_2_" />
			<g
   transform="matrix(0.2964182,0,0,0.2964182,-883.78418,422.24715)"
   id="orginal-8_2_">
			</g>
		</g>
	</g>
<g
   id="Calque_1"
   transform="translate(-180.605,-46.825001)">
	<g
   id="layer1_2_"
   groupmode="layer"
   label="Ebene 1">
		<g
   id="g24902">
			
				<radialGradient
   id="path3366-8_1_"
   cx="38.715801"
   cy="597.42291"
   r="1.4306999"
   gradientTransform="matrix(22.3851,0,0,-12.1705,-215.3611,7576.4141)"
   gradientUnits="userSpaceOnUse">
				<stop
   offset="0"
   style="stop-color:#000000"
   id="stop31" />
				<stop
   offset="1"
   style="stop-color:#000000;stop-opacity:0"
   id="stop33" />
			</radialGradient>
			
				<path
   id="path3366-8"
   ry="8.5714283"
   rx="17.142857"
   cy="40"
   cx="23.857143"
   type="arc"
   d="m 683.31,305.486 c 0,9.617 -14.338,17.413 -32.026,17.413 -17.687,0 -32.025,-7.796 -32.025,-17.413 l 0,0 c 0,-9.616 14.339,-17.412 32.025,-17.412 17.688,0 32.026,7.796 32.026,17.412 l 0,0 z"
   inkscape:connector-curvature="0"
   style="fill:url(#path3366-8_1_)" />
			
				<linearGradient
   id="path3068-5_1_"
   gradientUnits="userSpaceOnUse"
   x1="38.580002"
   y1="585.38867"
   x2="41.044102"
   y2="585.38867"
   gradientTransform="matrix(21.1429,0,0,-21.1429,-190.5981,12663.294)">
				<stop
   offset="0"
   style="stop-color:#729FCF"
   id="stop37" />
				<stop
   offset="0.3158"
   style="stop-color:#BABDB6"
   id="stop39" />
				<stop
   offset="1"
   style="stop-color:#3465A4"
   id="stop41" />
			</linearGradient>
			
				<path
   id="path3068-5"
   nodetypes="csszssz"
   stroke-miterlimit="10"
   d="m 650.922,255.054 c -13.869,0 -25.145,4.946 -25.145,11.028 0,0.437 0,40.35 0,40.805 0,6.082 11.275,11.029 25.145,11.029 13.867,0 25.594,-4.947 25.594,-11.029 0,-0.359 0,-40.444 0,-40.805 0,-6.082 -11.727,-11.028 -25.594,-11.028 l 0,0 z"
   inkscape:connector-curvature="0"
   style="fill:url(#path3068-5_1_);stroke:#ffffff;stroke-width:0.75;stroke-miterlimit:10" />
			
				<path
   id="path4174-0"
   nodetypes="csszssz"
   stroke-miterlimit="10"
   enable-background="new    "
   d="m 650.937,256.429 c -12.931,0 -23.445,4.61 -23.445,10.282 0,0.406 0,38.619 0,39.042 0,5.672 10.515,10.282 23.445,10.282 12.93,0 23.861,-4.61 23.861,-10.282 0,-0.336 0,-38.707 0,-39.042 10e-4,-5.672 -10.931,-10.282 -23.861,-10.282 z"
   inkscape:connector-curvature="0"
   style="opacity:0.54430003;fill:none;stroke:#ffffff;stroke-width:0.75;stroke-miterlimit:10" />
			
				<path
   id="path3364-7"
   ry="5.5"
   rx="12.857142"
   cy="14.071428"
   cx="24"
   type="arc"
   stroke-miterlimit="10"
   d="m 674.564,265.933 c 0,5.116 -10.536,9.265 -23.532,9.265 -12.997,0 -23.533,-4.148 -23.533,-9.265 0,-5.117 10.536,-9.265 23.533,-9.265 12.996,0 23.532,4.147 23.532,9.265 z"
   inkscape:connector-curvature="0"
   style="fill:#3465a4;stroke:#ffffff;stroke-width:0.5;stroke-miterlimit:10" />
			
				<linearGradient
   id="path6922-9_1_"
   gradientUnits="userSpaceOnUse"
   x1="39.379299"
   y1="588.41022"
   x2="39.355499"
   y2="587.53363"
   gradientTransform="matrix(21.1429,0,0,-21.1429,-193.6293,12719.169)">
				<stop
   offset="0"
   style="stop-color:#FFFFFF"
   id="stop47" />
				<stop
   offset="1"
   style="stop-color:#FFFFFF;stop-opacity:0"
   id="stop49" />
			</linearGradient>
			
				<path
   id="path6922-9"
   nodetypes="ccccccc"
   enable-background="new    "
   d="m 632.756,274.125 0.631,29.619 8.066,2.27 -0.253,-29.494 c 0,0 3.655,0 9.58,-0.377 -9.204,-0.412 -19.733,-4.367 -23.317,-6.933 2.5,3.691 5.293,4.915 5.293,4.915 l 0,0 z"
   inkscape:connector-curvature="0"
   style="opacity:0.49370003;fill:url(#path6922-9_1_)" />
			<rect
   id="rect2300_1_"
   x="615.73999"
   y="252.929"
   width="70.939003"
   height="70.939003"
   style="fill:none" />
		</g>
	</g>
	<path
   id="path3010-1_1_"
   d="m 658.731,305.11 c 0.249,-2.075 0.175,-2.38 1.722,-2.044 l 0.393,0.034 c 1.189,0.054 2.745,-0.19 3.659,-0.616 1.968,-0.912 3.134,-2.436 1.194,-2.036 -4.426,0.913 -4.73,-0.585 -4.73,-0.585 4.674,-6.934 6.627,-15.736 4.94,-17.889 -4.599,-5.877 -12.56,-3.098 -12.693,-3.026 l -0.042,0.009 c -0.875,-0.182 -1.854,-0.29 -2.953,-0.308 -2.002,-0.033 -3.521,0.524 -4.675,1.399 0,0 -14.201,-5.851 -13.541,7.358 0.14,2.81 4.027,21.261 8.664,15.688 1.694,-2.038 3.333,-3.761 3.333,-3.761 0.813,0.541 1.786,0.815 2.807,0.717 l 0.08,-0.068 c -0.025,0.253 -0.014,0.5 0.031,0.793 -1.194,1.335 -0.844,1.569 -3.231,2.06 -2.415,0.498 -0.997,1.385 -0.071,1.616 1.125,0.28 3.724,0.679 5.48,-1.779 l -0.07,0.28 c 0.469,0.375 0.437,2.694 0.503,4.352 0.067,1.656 0.178,3.203 0.515,4.115 0.338,0.911 0.736,3.26 3.875,2.586 2.622,-0.56 4.628,-1.368 4.81,-8.895"
   inkscape:connector-curvature="0"
   style="stroke:#000000;stroke-width:2" />
	<g
   id="layer1"
   groupmode="layer"
   label="Ebene 1">
		<g
   id="g35053">
			<path
   id="path3010-1"
   d="m 658.589,305.053 c 0.245,-2.045 0.173,-2.344 1.694,-2.013 l 0.387,0.034 c 1.17,0.053 2.701,-0.188 3.601,-0.606 1.937,-0.898 3.085,-2.398 1.175,-2.004 -4.355,0.897 -4.654,-0.577 -4.654,-0.577 4.599,-6.823 6.521,-15.483 4.862,-17.604 -4.526,-5.782 -12.36,-3.047 -12.492,-2.977 l -0.041,0.008 c -0.86,-0.179 -1.824,-0.286 -2.905,-0.303 -1.971,-0.033 -3.467,0.516 -4.601,1.376 0,0 -13.976,-5.757 -13.326,7.241 0.139,2.765 3.964,20.923 8.526,15.438 1.668,-2.005 3.279,-3.701 3.279,-3.701 0.801,0.532 1.758,0.803 2.764,0.706 l 0.076,-0.066 c -0.023,0.25 -0.013,0.493 0.032,0.781 -1.175,1.313 -0.83,1.544 -3.18,2.026 -2.378,0.49 -0.981,1.363 -0.069,1.592 1.105,0.275 3.662,0.668 5.392,-1.752 l -0.068,0.276 c 0.461,0.368 0.43,2.651 0.495,4.281 0.066,1.631 0.174,3.152 0.507,4.05 0.332,0.896 0.725,3.207 3.813,2.546 2.579,-0.553 4.553,-1.348 4.733,-8.752"
   inkscape:connector-curvature="0"
   style="stroke:#000000;stroke-width:0.75" />
			<path
   id="path3012-5"
   stroke-miterlimit="10"
   d="m 665.445,300.464 c -4.355,0.897 -4.654,-0.577 -4.654,-0.577 4.599,-6.822 6.521,-15.484 4.862,-17.604 -4.526,-5.782 -12.36,-3.047 -12.491,-2.977 l -0.042,0.008 c -0.86,-0.178 -1.824,-0.285 -2.905,-0.303 -1.972,-0.032 -3.467,0.517 -4.601,1.377 0,0 -13.977,-5.758 -13.326,7.241 0.138,2.765 3.964,20.923 8.526,15.438 1.668,-2.005 3.278,-3.701 3.278,-3.701 0.801,0.532 1.759,0.803 2.763,0.706 l 0.078,-0.066 c -0.023,0.25 -0.013,0.493 0.031,0.781 -1.175,1.313 -0.83,1.544 -3.18,2.026 -2.377,0.49 -0.98,1.363 -0.068,1.592 1.105,0.275 3.662,0.668 5.391,-1.752 l -0.068,0.276 c 0.461,0.368 0.784,2.399 0.729,4.239 -0.054,1.841 -0.091,3.104 0.272,4.092 0.363,0.986 0.725,3.207 3.814,2.546 2.58,-0.554 3.918,-1.986 4.104,-4.376 0.133,-1.701 0.432,-1.449 0.45,-2.969 l 0.24,-0.72 c 0.276,-2.304 0.044,-3.048 1.634,-2.702 l 0.386,0.035 c 1.171,0.053 2.702,-0.188 3.603,-0.606 1.936,-0.899 3.084,-2.399 1.174,-2.004 l 0,0 0,0 z"
   inkscape:connector-curvature="0"
   style="fill:#336791;stroke:#000000;stroke-width:0.75;stroke-miterlimit:10" />
			<path
   id="path3014-4"
   d="m 649.295,301.784 c -0.12,4.287 0.029,8.604 0.45,9.653 0.419,1.049 1.317,3.09 4.407,2.428 2.58,-0.553 3.52,-1.623 3.927,-3.986 0.3,-1.74 0.879,-6.568 0.953,-7.559"
   inkscape:connector-curvature="0"
   style="fill:none;stroke:#ffffff;stroke-width:0.75;stroke-linecap:round;stroke-linejoin:round" />
			<path
   id="path3016-1"
   d="m 645.592,280.292 c 0,0 -13.984,-5.716 -13.334,7.282 0.137,2.766 3.963,20.924 8.525,15.439 1.668,-2.006 3.176,-3.579 3.176,-3.579"
   inkscape:connector-curvature="0"
   style="fill:none;stroke:#ffffff;stroke-width:0.75;stroke-linecap:round;stroke-linejoin:round" />
			<path
   id="path3018-3"
   d="m 653.146,279.25 c -0.484,0.151 7.78,-3.021 12.477,2.979 1.658,2.12 -0.264,10.781 -4.863,17.605"
   inkscape:connector-curvature="0"
   style="fill:none;stroke:#ffffff;stroke-width:0.75;stroke-linecap:round;stroke-linejoin:round" />
			<path
   id="path3020-7"
   d="m 660.76,299.834 c 0,0 0.301,1.475 4.656,0.575 1.908,-0.394 0.76,1.105 -1.176,2.005 -1.589,0.737 -5.149,0.926 -5.208,-0.094 -0.149,-2.627 1.874,-1.828 1.728,-2.486 -0.131,-0.594 -1.036,-1.176 -1.635,-2.627 -0.523,-1.267 -7.17,-10.983 1.843,-9.54 0.33,-0.068 -2.351,-8.571 -10.784,-8.71 -8.434,-0.138 -8.156,10.37 -8.156,10.37"
   inkscape:connector-curvature="0"
   style="fill:none;stroke:#ffffff;stroke-width:0.75;stroke-linecap:round;stroke-linejoin:bevel" />
			<path
   id="path3022-3"
   d="m 646.934,300.732 c -1.176,1.313 -0.828,1.543 -3.18,2.028 -2.377,0.489 -0.98,1.361 -0.068,1.59 1.105,0.275 3.664,0.668 5.392,-1.752 0.526,-0.736 -0.003,-1.912 -0.726,-2.211 -0.35,-0.145 -0.817,-0.327 -1.418,0.345 l 0,0 z"
   inkscape:connector-curvature="0"
   style="fill:none;stroke:#ffffff;stroke-width:0.75;stroke-linecap:round;stroke-linejoin:round" />
			<path
   id="path3024-5"
   d="m 646.857,300.709 c -0.118,-0.772 0.254,-1.69 0.652,-2.766 0.6,-1.612 1.982,-3.225 0.877,-8.341 -0.826,-3.813 -6.355,-0.793 -6.359,-0.276 -0.004,0.517 0.25,2.62 -0.092,5.069 -0.447,3.196 2.033,5.899 4.89,5.622"
   inkscape:connector-curvature="0"
   style="fill:none;stroke:#ffffff;stroke-width:0.75;stroke-linecap:round;stroke-linejoin:round" />
			<path
   id="path3026-8"
   d="m 645.541,289.248 c -0.023,0.177 0.323,0.647 0.777,0.711 0.453,0.063 0.842,-0.305 0.866,-0.481 0.024,-0.177 -0.323,-0.371 -0.777,-0.435 -0.454,-0.064 -0.841,0.03 -0.866,0.205 l 0,0 0,0 z"
   inkscape:connector-curvature="0"
   style="fill:#ffffff;stroke:#ffffff;stroke-width:0.75" />
			<path
   id="path3028-5"
   d="m 659.346,288.889 c 0.024,0.177 -0.323,0.647 -0.777,0.71 -0.453,0.064 -0.842,-0.304 -0.866,-0.48 -0.024,-0.177 0.323,-0.371 0.778,-0.435 0.453,-0.063 0.839,0.028 0.865,0.205 l 0,0 0,0 z"
   inkscape:connector-curvature="0"
   style="fill:#ffffff;stroke:#ffffff;stroke-width:0.75" />
			<path
   id="path3030-6"
   d="m 660.968,287.667 c 0.075,1.385 -0.298,2.328 -0.345,3.803 -0.07,2.142 1.021,4.595 -0.623,7.05"
   inkscape:connector-curvature="0"
   style="fill:none;stroke:#ffffff;stroke-width:0.75;stroke-linecap:round;stroke-linejoin:round" />
			<path
   id="path3032-9"
   d="M 619.18,241.899"
   inkscape:connector-curvature="0"
   style="fill:none;stroke:#ffffff;stroke-width:0.75;stroke-linecap:round;stroke-linejoin:round" />
			<g
   id="orginal-8"
   transform="matrix(0.2964182,0,0,0.2964182,-883.78418,422.24715)">
			</g>
		</g>
	</g>
</g>
<g
   id="Calque_2"
   transform="translate(-180.605,-46.825001)">
	
		<rect
   id="rect24376-5-32_4_"
   x="213.515"
   y="238.463"
   stroke-miterlimit="10"
   width="110.712"
   height="110.527"
   style="opacity:0.81000001;fill:#336791;stroke:#231f20;stroke-width:2.5;stroke-miterlimit:10" />
	
		<image
   sodipodi:absref="/home/abaumgartner/presentation PG/A77B278E.jpg"
   xlink:href="A77B278E.jpg"
   style="opacity:0.5;overflow:visible"
   overflow="visible"
   width="449"
   height="16"
   transform="matrix(1.1604,0,0,0.5626,181.9999,142)"
   id="image71">
	</image>
	
		<image
   sodipodi:absref="/home/abaumgartner/presentation PG/A77B2792.jpg"
   xlink:href="A77B2792.jpg"
   style="opacity:0.5;overflow:visible"
   overflow="visible"
   width="449"
   height="16"
   transform="matrix(1.1604,0,0,0.5626,181.9999,373)"
   id="image73">
	</image>
	<g
   id="g2303">
		<path
   id="path46"
   d="m 415.824,90.599 c 0,-6.953 -1.982,-10.523 -5.948,-10.719 -1.577,-0.075 -3.118,0.177 -4.617,0.759 -1.196,0.428 -2.001,0.852 -2.425,1.28 v 16.598 c 2.537,1.592 4.789,2.332 6.754,2.215 4.156,-0.274 6.236,-3.649 6.236,-10.133 z m 4.893,0.289 c 0,3.533 -0.829,6.465 -2.495,8.797 -1.857,2.64 -4.431,3.999 -7.722,4.073 -2.48,0.079 -5.036,-0.698 -7.666,-2.327 v 15.085 l -4.254,-1.518 V 81.514 c 0.698,-0.856 1.596,-1.592 2.686,-2.215 2.531,-1.476 5.608,-2.234 9.229,-2.271 l 0.061,0.061 c 3.31,-0.042 5.86,1.317 7.651,4.073 1.672,2.526 2.51,5.765 2.51,9.726 z"
   inkscape:connector-curvature="0"
   style="fill:#646464" />
		<path
   id="path48"
   d="m 446.715,100.788 c 0,4.738 -0.475,8.019 -1.424,9.844 -0.953,1.824 -2.769,3.281 -5.45,4.366 -2.173,0.856 -4.524,1.322 -7.046,1.401 l -0.703,-2.681 c 2.564,-0.349 4.37,-0.698 5.418,-1.047 2.062,-0.698 3.477,-1.769 4.254,-3.202 0.623,-1.168 0.93,-3.398 0.93,-6.697 v -1.108 c -2.908,1.322 -5.957,1.979 -9.145,1.979 -2.096,0 -3.943,-0.656 -5.535,-1.979 -1.787,-1.438 -2.68,-3.262 -2.68,-5.473 V 78.484 l 4.254,-1.457 v 17.821 c 0,1.904 0.614,3.37 1.842,4.398 1.23,1.029 2.821,1.522 4.771,1.485 1.95,-0.042 4.04,-0.796 6.26,-2.271 V 77.669 h 4.254 v 23.119 z"
   inkscape:connector-curvature="0"
   style="fill:#646464" />
		<path
   id="path50"
   d="m 463.322,103.525 c -0.508,0.042 -0.973,0.06 -1.4,0.06 -2.406,0 -4.282,-0.572 -5.623,-1.722 -1.336,-1.15 -2.006,-2.737 -2.006,-4.762 V 80.346 h -2.914 V 77.67 h 2.914 v -7.107 l 4.25,-1.513 v 8.62 h 4.779 v 2.676 h -4.779 v 16.639 c 0,1.597 0.428,2.728 1.283,3.389 0.736,0.544 1.904,0.856 3.496,0.935 v 2.216 z"
   inkscape:connector-curvature="0"
   style="fill:#646464" />
		<path
   id="path52"
   d="m 489.08,103.175 h -4.254 v -16.42 c 0,-1.671 -0.392,-3.109 -1.168,-4.31 -0.899,-1.359 -2.146,-2.039 -3.748,-2.039 -1.949,0 -4.389,1.029 -7.316,3.086 v 19.683 h -4.254 v -39.25 l 4.254,-1.34 v 17.877 c 2.719,-1.978 5.688,-2.97 8.913,-2.97 2.253,0 4.077,0.759 5.474,2.271 1.4,1.512 2.1,3.398 2.1,5.65 v 17.762 l -0.001,0 z"
   inkscape:connector-curvature="0"
   style="fill:#646464" />
		<path
   id="path54"
   d="m 511.69,89.929 c 0,-2.671 -0.507,-4.878 -1.517,-6.623 -1.201,-2.127 -3.068,-3.249 -5.591,-3.365 -4.663,0.27 -6.991,3.612 -6.991,10.016 0,2.937 0.484,5.39 1.463,7.359 1.246,2.509 3.117,3.747 5.612,3.705 4.683,-0.038 7.024,-3.733 7.024,-11.092 z m 4.659,0.028 c 0,3.803 -0.973,6.968 -2.914,9.495 -2.136,2.83 -5.087,4.25 -8.853,4.25 -3.732,0 -6.642,-1.419 -8.741,-4.25 -1.902,-2.527 -2.852,-5.692 -2.852,-9.495 0,-3.574 1.027,-6.581 3.085,-9.029 2.173,-2.597 5.031,-3.9 8.563,-3.9 3.533,0 6.41,1.303 8.625,3.9 2.058,2.448 3.087,5.455 3.087,9.029 z"
   inkscape:connector-curvature="0"
   style="fill:#646464" />
		<path
   id="path56"
   d="m 540.739,103.175 h -4.255 V 85.824 c 0,-1.904 -0.572,-3.388 -1.717,-4.459 -1.146,-1.066 -2.672,-1.583 -4.576,-1.541 -2.02,0.038 -3.941,0.699 -5.766,1.979 v 21.373 h -4.256 v -21.9 c 2.449,-1.782 4.702,-2.946 6.759,-3.49 1.94,-0.507 3.653,-0.759 5.13,-0.759 1.01,0 1.959,0.098 2.854,0.293 1.67,0.386 3.029,1.103 4.076,2.155 1.168,1.164 1.751,2.56 1.751,4.194 v 19.506 z"
   inkscape:connector-curvature="0"
   style="fill:#646464" />
		
			<linearGradient
   id="path1948_1_"
   gradientUnits="userSpaceOnUse"
   x1="638.71863"
   y1="481.61429"
   x2="690.77838"
   y2="436.8237"
   gradientTransform="matrix(0.5625,0,0,-0.568,-30.2422,339.1648)">
			<stop
   offset="0"
   style="stop-color:#5A9FD4"
   id="stop83" />
			<stop
   offset="1"
   style="stop-color:#306998"
   id="stop85" />
		</linearGradient>
		<path
   id="path1948"
   d="m 356.563,64.083 c -2.189,0.01 -4.279,0.197 -6.118,0.522 -5.418,0.958 -6.402,2.961 -6.402,6.655 v 4.88 h 12.804 v 1.626 h -12.804 -4.805 c -3.721,0 -6.979,2.236 -7.999,6.491 -1.176,4.877 -1.228,7.92 0,13.012 0.91,3.791 3.083,6.491 6.805,6.491 h 4.402 v -5.85 c 0,-4.226 3.657,-7.954 7.999,-7.954 h 12.789 c 3.56,0 6.401,-2.931 6.401,-6.506 V 71.26 c 0,-3.469 -2.927,-6.076 -6.401,-6.655 -2.2,-0.366 -4.482,-0.533 -6.671,-0.522 z m -6.923,3.924 c 1.322,0 2.402,1.098 2.402,2.447 0,1.345 -1.08,2.433 -2.402,2.433 -1.328,0 -2.403,-1.088 -2.403,-2.433 0,-1.35 1.075,-2.447 2.403,-2.447 z"
   inkscape:connector-curvature="0"
   style="fill:url(#path1948_1_);stroke:#ffffff" />
		
			<linearGradient
   id="path1950_1_"
   gradientUnits="userSpaceOnUse"
   x1="710.9032"
   y1="409.7168"
   x2="692.31372"
   y2="436.01761"
   gradientTransform="matrix(0.5625,0,0,-0.568,-30.2422,339.1648)">
			<stop
   offset="0"
   style="stop-color:#FFD43B"
   id="stop89" />
			<stop
   offset="1"
   style="stop-color:#FFE873"
   id="stop91" />
		</linearGradient>
		<path
   id="path1950"
   d="m 371.232,77.766 v 5.686 c 0,4.408 -3.737,8.118 -7.998,8.118 h -12.789 c -3.503,0 -6.402,2.998 -6.402,6.506 v 12.192 c 0,3.47 3.017,5.511 6.402,6.506 4.053,1.192 7.939,1.407 12.789,0 3.223,-0.933 6.401,-2.812 6.401,-6.506 v -4.88 h -12.788 v -1.626 h 12.788 6.402 c 3.721,0 5.107,-2.596 6.402,-6.491 1.336,-4.01 1.28,-7.867 0,-13.012 -0.92,-3.704 -2.676,-6.491 -6.402,-6.491 h -4.805 z m -7.193,30.874 c 1.327,0 2.402,1.088 2.402,2.433 0,1.35 -1.075,2.447 -2.402,2.447 -1.323,0 -2.402,-1.098 -2.402,-2.447 0,-1.345 1.08,-2.433 2.402,-2.433 z"
   inkscape:connector-curvature="0"
   style="fill:url(#path1950_1_);stroke:#ffffff" />
		<path
   id="text3004"
   d="m 549.022,73.877 h 0.746 v -4.678 h 1.768 v -0.558 h -4.28 v 0.558 h 1.767 v 4.678 m 3.173,0 h 0.639 v -4.272 l 1.383,4.272 h 0.709 l 1.441,-4.257 v 4.258 h 0.695 v -5.235 h -0.92 l -1.574,4.485 -1.344,-4.485 h -1.029 v 5.234"
   inkscape:connector-curvature="0"
   style="fill:#646464" />
		
			<radialGradient
   id="path1894_1_"
   cx="115.659"
   cy="169.2803"
   r="13.8667"
   gradientTransform="matrix(0,-0.2399,-1.0547,0,535.532,152.8073)"
   gradientUnits="userSpaceOnUse">
			<stop
   offset="0"
   style="stop-color:#B8B8B8;stop-opacity:0.498"
   id="stop96" />
			<stop
   offset="1"
   style="stop-color:#7F7F7F;stop-opacity:0"
   id="stop98" />
		</radialGradient>
		<path
   id="path1894"
   enable-background="new    "
   d="m 374.149,125.061 c 0,1.837 -7.681,3.327 -17.157,3.327 -9.476,0 -17.158,-1.489 -17.158,-3.327 0,-1.838 7.682,-3.327 17.158,-3.327 9.476,0 17.157,1.49 17.157,3.327 l 0,0 z"
   inkscape:connector-curvature="0"
   style="opacity:0.44380002;fill:url(#path1894_1_)" />
	</g>
	
		<rect
   id="rect24376-3_4_"
   x="212.89799"
   y="238.463"
   enable-background="new    "
   width="110.711"
   height="29.125"
   style="opacity:0.66000001;fill:#f2f2f2;stroke:#050000;stroke-width:2" />
	<path
   id="path24378-07_4_"
   connector-curvature="0"
   d="m 226.968,268.154 v 80.618"
   inkscape:connector-curvature="0"
   style="fill:none;stroke:#000000" />
	<path
   id="path24380-03_4_"
   connector-curvature="0"
   d="m 268.423,267.417 -0.593,82.585"
   inkscape:connector-curvature="0"
   style="fill:none;stroke:#000000" />
	<path
   id="path24384-05_4_"
   connector-curvature="0"
   d="m 291.488,267.417 -1.191,81.8"
   inkscape:connector-curvature="0"
   style="fill:none;stroke:#000000;stroke-width:1.01979995" />
	<path
   id="path24386-7_4_"
   connector-curvature="0"
   d="m 309.938,266.435 0.594,82.585"
   inkscape:connector-curvature="0"
   style="fill:none;stroke:#000000" />
	<text
   font-size="19.7187"
   id="text106"
   x="239.53889"
   y="259.45901"
   style="font-size:19.71870041px;font-family:MyriadPro-Regular"><tspan
     style="font-style:normal;font-variant:normal;font-weight:normal;font-stretch:normal;font-family:DejaVu Sans;-inkscape-font-specification:DejaVu Sans"
     id="tspan3148">Users</tspan></text>


	
		<rect
   id="rect24376-3_1_"
   x="483.77701"
   y="238.463"
   enable-background="new    "
   width="110.711"
   height="29.125"
   style="opacity:0.66000001;fill:#f2f2f2;stroke:#050000;stroke-width:2" />
	<path
   id="path24378-07_1_"
   connector-curvature="0"
   d="m 502.848,268.154 v 80.618"
   inkscape:connector-curvature="0"
   style="fill:none;stroke:#000000" />
	<path
   id="path24380-03_1_"
   connector-curvature="0"
   d="m 539.305,267.417 -0.594,82.585"
   inkscape:connector-curvature="0"
   style="fill:none;stroke:#000000" />
	<path
   id="path24384-05_1_"
   connector-curvature="0"
   d="m 562.367,267.417 -1.19,81.8"
   inkscape:connector-curvature="0"
   style="fill:none;stroke:#000000;stroke-width:1.01979995" />
	<path
   id="path24386-7_1_"
   connector-curvature="0"
   d="m 580.818,266.435 0.596,82.585"
   inkscape:connector-curvature="0"
   style="fill:none;stroke:#000000" />
	
		<rect
   id="rect24376-5-32_1_"
   x="484.39401"
   y="238.463"
   width="110.711"
   height="110.527"
   style="fill:none;stroke:#050000;stroke-width:2.49600005" />
	<text
   font-size="19.7187"
   id="text114"
   x="520.41882"
   y="259.45901"
   style="font-size:19.71870041px;font-family:MyriadPro-Regular"><tspan
     style="font-style:normal;font-variant:normal;font-weight:normal;font-stretch:normal;font-family:DejaVu Sans;-inkscape-font-specification:DejaVu Sans"
     id="tspan3150">Test</tspan></text>


	<path
   id="path24760_1_"
   d="m 352.583,310.223 4.514,-4.513 -15.797,4.513 15.797,4.514 -4.514,-4.514 z"
   inkscape:connector-curvature="0"
   style="stroke:#000000" />
	<line
   x1="450.17099"
   y1="310.08401"
   x2="351.72299"
   y2="310.08401"
   id="line117"
   style="fill:none;stroke:#000000;stroke-width:0.80000001" />
	<path
   d="m 372.227,251.737 c 0.009,0.019 0.013,0.04 0.019,0.061 -0.007,-0.023 -0.013,-0.044 -0.02,-0.065 0,0.001 10e-4,0.002 10e-4,0.004 z"
   id="path119"
   inkscape:connector-curvature="0"
   style="fill:#00ff00" />
	<path
   d="m 382.68,263.264 c -8.211,0.021 -14.874,6.719 -14.854,14.93 0.021,8.21 6.717,14.873 14.928,14.854 8.211,-0.021 14.874,-6.717 14.854,-14.928 -0.02,-8.211 -6.717,-14.877 -14.928,-14.856 z m -7.34,20.263 c -2.952,0.008 -5.361,-2.389 -5.368,-5.34 -0.008,-2.952 2.39,-5.359 5.341,-5.366 2.953,-0.008 5.359,2.386 5.367,5.34 0.007,2.95 -2.388,5.36 -5.34,5.366 z"
   id="path121"
   inkscape:connector-curvature="0"
   style="fill:#7f6a6a" />
	<path
   d="m 365.163,278.199 c 0.024,9.68 7.918,17.534 17.598,17.51 6.708,-0.018 12.908,-3.954 15.814,-10.061 0.183,-0.445 0.613,-0.733 1.153,-0.725 l 6.511,-0.017 c 0.17,10e-4 0.334,-0.062 0.462,-0.173 0,0 1.938,-1.696 2.274,-1.991 0.282,-0.001 0.721,-0.001 0.721,-0.001 0.202,0 0.396,-0.09 0.53,-0.241 0,0 0.726,-0.833 1.118,-1.284 0.26,0.49 0.607,1.144 0.607,1.144 0.123,0.231 0.363,0.375 0.624,0.374 l 6.547,-0.016 c 0.163,-0.001 0.321,-0.058 0.447,-0.162 0,0 1.495,-1.239 1.813,-1.502 0.401,0 2.962,-0.007 3.606,-0.01 0.239,0.45 0.682,1.281 0.682,1.281 0.121,0.23 0.361,0.376 0.622,0.374 l 0.692,-0.001 c 0.188,-0.002 0.366,-0.076 0.496,-0.207 l 1.45,-1.459 1.46,1.451 c 0.131,0.131 0.31,0.205 0.498,0.205 l 2.137,-0.006 c 0.188,-0.001 0.366,-0.076 0.497,-0.207 0,0 0.214,-0.215 0.424,-0.426 0.164,0.164 0.339,0.338 0.339,0.338 0.133,0.133 0.313,0.205 0.499,0.205 0.186,0 0.365,-0.074 0.497,-0.207 0,0 0.175,-0.176 0.336,-0.34 0.102,0.101 0.232,0.23 0.232,0.23 0.196,0.197 0.488,0.258 0.746,0.16 l 1.447,-0.561 1.895,-1.152 c 10e-4,-10e-4 10e-4,-0.002 0.003,-0.004 l 2.097,-1.59 c 0.001,-0.002 0,-0.004 0.005,-0.006 l 1.335,-1.405 c 0.125,-0.131 0.145,-0.245 0.143,-0.427 l -10e-4,-0.797 -0.006,-2.652 -10e-4,-0.428 c -10e-4,-0.189 -0.078,-0.371 -0.214,-0.504 -0.576,-0.557 -1.547,-1.346 -2.902,-1.936 -0.09,-0.04 -0.186,-0.059 -0.283,-0.06 L 399.414,271 c -0.421,-0.034 -0.794,-0.281 -0.973,-0.643 0,0 -0.01,-0.01 -0.011,-0.011 -2.999,-6.029 -9.037,-9.763 -15.76,-9.747 -9.677,0.028 -17.531,7.922 -17.507,17.6 z m 6.872,-0.016 c -0.004,-1.813 1.468,-3.293 3.283,-3.298 1.814,-0.004 3.293,1.469 3.298,3.281 0.004,1.813 -1.469,3.295 -3.281,3.299 -1.816,0.004 -3.295,-1.469 -3.3,-3.282 z"
   id="path123"
   inkscape:connector-curvature="0"
   style="fill:#f7931e" />
	
		<linearGradient
   id="SVGID_1_"
   gradientUnits="userSpaceOnUse"
   x1="464.6698"
   y1="-115.5547"
   x2="541.62292"
   y2="-115.5547"
   gradientTransform="matrix(-1,0.0025,0.0025,1,907.78,392.3989)">
		<stop
   offset="0"
   style="stop-color:#FCEE21"
   id="stop126" />
		<stop
   offset="1"
   style="stop-color:#FBB03B"
   id="stop128" />
	</linearGradient>
	<path
   d="m 365.868,278.197 c 0.023,9.305 7.585,16.83 16.89,16.807 6.702,-0.016 12.467,-3.951 15.165,-9.625 0.284,-0.685 0.956,-1.168 1.743,-1.17 0.022,0 0.039,0.011 0.061,0.012 l 0.001,-0.002 6.511,-0.016 2.471,-2.164 0.985,-10e-4 1.451,-1.662 0.55,-10e-4 0.879,1.655 6.546,-0.017 2.009,-1.662 4.285,-0.011 0.879,1.655 0.691,-10e-4 1.818,-1.831 -32.106,0.08 c -0.388,0 -1.781,-0.69 -1.781,-0.69 l -10e-4,-0.139 c 0,0 1.39,-0.698 1.778,-0.699 l 44.878,-0.111 c 0.474,-0.419 0.906,-0.858 1.248,-1.31 l -0.002,-0.797 -47.361,0.117 c -0.389,0 -3.273,-0.696 -3.273,-0.696 l -0.003,-1.243 c 0,0 2.881,-0.71 3.27,-0.711 l 47.361,-0.119 v -0.428 c -0.521,-0.504 -1.433,-1.248 -2.694,-1.797 l -40.577,0.102 c -0.008,0 -0.017,0.005 -0.027,0.005 -0.013,0 -0.024,-0.006 -0.038,-0.005 l -0.112,0.001 -0.002,-0.017 c -0.678,-0.056 -1.261,-0.453 -1.548,-1.035 -0.002,-0.004 -0.008,-0.004 -0.01,-0.008 -2.765,-5.558 -8.5,-9.372 -15.127,-9.356 -9.307,0.024 -16.831,7.586 -16.808,16.89 z m 5.463,-0.013 c -0.005,-2.206 1.779,-3.998 3.986,-4.004 2.204,-0.004 3.997,1.777 4.004,3.984 0.006,2.207 -1.779,3.999 -3.985,4.005 -2.206,0.005 -4,-1.777 -4.005,-3.985 z"
   id="path130"
   inkscape:connector-curvature="0"
   style="fill:url(#SVGID_1_)" />
	
		<linearGradient
   id="SVGID_2_"
   gradientUnits="userSpaceOnUse"
   x1="533.45789"
   y1="-107.21"
   x2="502.94"
   y2="-136.5433"
   gradientTransform="matrix(-1,0.0025,0.0025,1,907.78,392.3989)">
		<stop
   offset="0"
   style="stop-color:#FCEE21"
   id="stop133" />
		<stop
   offset="1"
   style="stop-color:#FBB03B"
   id="stop135" />
	</linearGradient>
	<path
   d="m 368.53,278.191 c 0.02,7.836 6.386,14.17 14.222,14.15 7.835,-0.02 14.17,-6.385 14.15,-14.222 -0.02,-7.835 -6.386,-14.171 -14.222,-14.151 -7.834,0.02 -14.17,6.388 -14.15,14.223 z m 0.737,-0.002 c -0.009,-3.346 2.698,-6.064 6.044,-6.073 3.345,-0.008 6.064,2.697 6.071,6.043 0.01,3.345 -2.695,6.064 -6.041,6.072 -3.346,0.009 -6.066,-2.696 -6.074,-6.042 z"
   id="path137"
   inkscape:connector-curvature="0"
   style="fill:url(#SVGID_2_)" />
	<path
   d="m 399.36,271.723 -0.002,-0.017 c 0.038,10e-4 0.075,0.015 0.114,0.016 l -0.112,0.001 z"
   id="path139"
   inkscape:connector-curvature="0"
   style="fill:none" />
	<path
   d="m 399.473,271.722 h 0.065 c -0.008,0 -0.017,0.005 -0.027,0.005 -0.013,0.001 -0.025,-0.005 -0.038,-0.005 z"
   id="path141"
   inkscape:connector-curvature="0"
   style="fill:#999999" />
	
		<linearGradient
   id="SVGID_3_"
   gradientUnits="userSpaceOnUse"
   x1="489.98721"
   y1="-117.6939"
   x2="489.98721"
   y2="-119.7172"
   gradientTransform="matrix(-1,0.0025,0.0025,1,907.78,392.3989)">
		<stop
   offset="0"
   style="stop-color:#FCEE21"
   id="stop144" />
		<stop
   offset="1"
   style="stop-color:#FBB03B"
   id="stop146" />
	</linearGradient>
	<path
   d="m 392.182,275.919 -0.003,-1.243 c 0,0 2.881,-0.71 3.27,-0.711 l 47.361,-0.119 0.007,2.652 -47.361,0.117 c -0.39,0 -3.274,-0.696 -3.274,-0.696 z"
   id="path148"
   inkscape:connector-curvature="0"
   style="fill:url(#SVGID_3_)" />
	
		<linearGradient
   id="SVGID_4_"
   gradientUnits="userSpaceOnUse"
   x1="521.03497"
   y1="279.42429"
   x2="567.69128"
   y2="279.42429"
   gradientTransform="matrix(-1,0,0,1,962.6052,0)">
		<stop
   offset="0"
   style="stop-color:#FCEE21"
   id="stop151" />
		<stop
   offset="1"
   style="stop-color:#FBB03B"
   id="stop153" />
	</linearGradient>
	<path
   d="m 394.915,279.554 -0.001,-0.139 c 0,0 1.39,-0.698 1.778,-0.699 l 44.878,-0.111 c -0.63,0.559 -1.333,1.077 -2.021,1.534 l -10.491,0.025 -0.128,-0.129 -0.128,0.129 -32.106,0.08 c -0.388,0 -1.781,-0.69 -1.781,-0.69 z"
   id="path155"
   inkscape:connector-curvature="0"
   style="fill:url(#SVGID_4_)" />
	<path
   d="m 372.269,251.874 c -0.018,-0.044 -0.026,-0.092 -0.042,-0.137 0.014,0.045 0.031,0.089 0.042,0.137 z"
   id="path157"
   inkscape:connector-curvature="0"
   style="fill:none" />
	<path
   id="path24760-16_2_"
   connector-curvature="0"
   d="m 429.53,209.12 -6.519,-6.519 6.519,22.817 6.521,-22.817 -6.521,6.519 z"
   inkscape:connector-curvature="0"
   style="stroke:#000000" />
	<line
   x1="429.746"
   y1="134"
   x2="429.746"
   y2="209.256"
   id="line160"
   style="fill:none;stroke:#000000;stroke-width:0.80000001" />
	<path
   id="path24760-16_1_"
   connector-curvature="0"
   d="m 463.032,150.298 6.519,6.519 -6.519,-22.817 -6.521,22.817 6.521,-6.519 z"
   inkscape:connector-curvature="0"
   style="stroke:#000000" />
	<line
   x1="462.81601"
   y1="225.41701"
   x2="462.81601"
   y2="150.161"
   id="line163"
   style="fill:none;stroke:#000000;stroke-width:0.80000001" />
	
</g>
</svg>