<?xml version="1.0" encoding="UTF-8" standalone="no"?>
<!-- Generator: Adobe Illustrator 15.0.2, SVG Export Plug-In . SVG Version: 6.00 Build 0)  -->

<svg
   xmlns:dc="http://purl.org/dc/elements/1.1/"
   xmlns:cc="http://creativecommons.org/ns#"
   xmlns:rdf="http://www.w3.org/1999/02/22-rdf-syntax-ns#"
   xmlns:svg="http://www.w3.org/2000/svg"
   xmlns="http://www.w3.org/2000/svg"
   xmlns:xlink="http://www.w3.org/1999/xlink"
   xmlns:sodipodi="http://sodipodi.sourceforge.net/DTD/sodipodi-0.dtd"
   xmlns:inkscape="http://www.inkscape.org/namespaces/inkscape"
   version="1.1"
   x="0px"
   y="0px"
   width="900.93494"
   height="345.48846"
   viewBox="0 0 900.93494 345.48846"
   enable-background="new 0 0 1577 811"
   xml:space="preserve"
   id="svg2"
   inkscape:version="0.48.3.1 r9886"
   sodipodi:docname="schema-4.svg"><metadata
   id="metadata516"><rdf:RDF><cc:Work
       rdf:about=""><dc:format>image/svg+xml</dc:format><dc:type
         rdf:resource="http://purl.org/dc/dcmitype/StillImage" /><dc:title /></cc:Work></rdf:RDF></metadata><defs
   id="defs514">
	
		
	
		
	
		
	
		
	
	
	
	
		
	
	
	
	
	
		
	

	
	
	
	
	
	
	
	
	
	
	
		
	
	
		
	
	
	
	
	
		
	
		
	
	
	
	
		
	
		
	
	
	
	


	
	
	
	
	
	
	
	
	
	
	
	
	
	
		
	
		
	
		
	
	
	
	
		
	


	
	
	
	
	
	
	
	
	
	
	
	
	
	
	
	
	
	
	
	
		
	
		
	
		
	
		
	
		
	
		
<clipPath
   clipPathUnits="userSpaceOnUse"
   id="clipPath4093"><rect
     id="rect4095"
     x="-213.37538"
     y="1008.2178"
     stroke-miterlimit="10"
     enable-background="new    "
     width="742.94299"
     height="398.13998"
     style="opacity:0.93000034;fill:#50be1e;fill-opacity:0.653;stroke:#ffffff;stroke-width:0.62731612;stroke-miterlimit:10" /></clipPath><clipPath
   clipPathUnits="userSpaceOnUse"
   id="clipPath4099"><rect
     id="rect4101"
     x="741.77197"
     y="616.638"
     stroke-miterlimit="10"
     width="516.23798"
     height="159.97"
     style="fill:#336791;stroke:#ffffff;stroke-width:0.25;stroke-miterlimit:10" /></clipPath><radialGradient
   inkscape:collect="always"
   xlink:href="#path3366-8_5_"
   id="radialGradient4103"
   gradientUnits="userSpaceOnUse"
   gradientTransform="matrix(22.3851,0,0,-12.1705,-16831.584,10355.39)"
   cx="770.2915"
   cy="792.4502"
   r="1.4306999" /><linearGradient
   inkscape:collect="always"
   xlink:href="#path3068-5_5_"
   id="linearGradient4105"
   gradientUnits="userSpaceOnUse"
   gradientTransform="matrix(21.1429,0,0,-21.1429,-15841.631,17335.445)"
   x1="767.4873"
   y1="787.19531"
   x2="769.95142"
   y2="787.19531" /><linearGradient
   inkscape:collect="always"
   xlink:href="#path6922-9_5_"
   id="linearGradient4107"
   gradientUnits="userSpaceOnUse"
   gradientTransform="matrix(21.1429,0,0,-21.1429,-15844.662,17391.32)"
   x1="768.28662"
   y1="790.21582"
   x2="768.26282"
   y2="789.33917" /><radialGradient
   inkscape:collect="always"
   xlink:href="#path3366-8_6_"
   id="radialGradient4109"
   gradientUnits="userSpaceOnUse"
   gradientTransform="matrix(22.3851,0,0,-12.1705,-16831.584,10355.39)"
   cx="805.68597"
   cy="792.20508"
   r="1.4306999" /><linearGradient
   inkscape:collect="always"
   xlink:href="#path3068-5_6_"
   id="linearGradient4111"
   gradientUnits="userSpaceOnUse"
   gradientTransform="matrix(21.1429,0,0,-21.1429,-15841.631,17335.445)"
   x1="804.96143"
   y1="787.05371"
   x2="807.42499"
   y2="787.05371" /><linearGradient
   inkscape:collect="always"
   xlink:href="#path6922-9_6_"
   id="linearGradient4113"
   gradientUnits="userSpaceOnUse"
   gradientTransform="matrix(21.1429,0,0,-21.1429,-15844.662,17391.32)"
   x1="805.76031"
   y1="790.07422"
   x2="805.73639"
   y2="789.19812" /></defs><sodipodi:namedview
   pagecolor="#ffffff"
   bordercolor="#666666"
   borderopacity="1"
   objecttolerance="10"
   gridtolerance="10"
   guidetolerance="10"
   inkscape:pageopacity="0"
   inkscape:pageshadow="2"
   inkscape:window-width="1920"
   inkscape:window-height="1021"
   id="namedview512"
   showgrid="false"
   inkscape:zoom="0.76046487"
   inkscape:cx="693.2908"
   inkscape:cy="168.4195"
   inkscape:window-x="0"
   inkscape:window-y="27"
   inkscape:window-maximized="1"
   inkscape:current-layer="svg2"
   fit-margin-top="0"
   fit-margin-left="0"
   fit-margin-right="0"
   fit-margin-bottom="0" />
<image
   sodipodi:absref="/home/abaumgartner/presentation PG/2D636611.jpg"
   xlink:href="2D636611.jpg"
   y="99.487"
   x="0.79998779"
   style="opacity:0.5;overflow:visible"
   overflow="visible"
   width="294.99301"
   height="9.0016003"
   id="image5">
	</image><rect
   style="opacity:0.93000034;fill:#50be1e;fill-opacity:0.653;stroke:#ffffff;stroke-width:0.25;stroke-miterlimit:10"
   height="158.668"
   width="296.07999"
   enable-background="new    "
   stroke-miterlimit="10"
   y="177.12"
   x="0.125"
   id="rect5947-4_1_" /><g
   style="opacity:0.6"
   transform="matrix(0.39852315,0,0,0.39852315,85.160029,-224.67816)"
   id="g19979_2_"
   clip-path="url(#clipPath4093)">
		
			<g
   transform-center-y="-50"
   transform-center-x="117.14286"
   transform="matrix(1.25,0,0,1.25,267.55217,-436.06568)"
   id="g19927_2_">
			<path
   style="fill:#ffffff"
   inkscape:connector-curvature="0"
   d="m -203.724,1294.675 c -12.038,-0.325 -21.232,0.792 -29.091,4.109 -2.235,0.941 -5.796,0.964 -6.159,3.764 1.228,1.288 1.416,3.209 2.394,4.791 1.877,3.039 5.046,7.108 7.871,9.241 3.091,2.333 6.274,4.826 9.586,6.846 5.891,3.593 12.467,5.644 18.138,9.243 3.344,2.119 6.662,4.793 9.926,7.185 1.611,1.184 2.696,3.025 4.788,3.766 0,-0.114 0,-0.227 0,-0.343 -1.1,-1.4 -1.384,-3.329 -2.394,-4.791 -1.483,-1.482 -2.965,-2.968 -4.451,-4.45 -4.35,-5.773 -9.87,-10.845 -15.741,-15.06 -4.681,-3.36 -15.161,-7.9 -17.113,-13.346 -0.117,-0.116 -0.227,-0.229 -0.343,-0.341 3.318,-0.376 7.205,-1.578 10.269,-2.397 5.145,-1.382 9.745,-1.025 15.058,-2.396 2.398,-0.684 4.791,-1.37 7.188,-2.052 0,-0.459 0,-0.913 0,-1.37 -2.687,-2.758 -4.603,-6.405 -7.529,-8.898 -7.665,-6.528 -16.031,-13.048 -24.643,-18.484 -4.779,-3.017 -10.684,-4.975 -15.744,-7.532 -1.705,-0.857 -4.696,-1.304 -5.82,-2.739 -2.66,-3.388 -4.11,-7.687 -6.16,-11.637 -4.295,-8.273 -8.516,-17.306 -12.322,-26.01 -2.596,-5.936 -4.291,-11.79 -7.529,-17.114 -15.541,-25.551 -32.268,-40.972 -58.184,-56.133 -5.513,-3.223 -12.151,-4.497 -19.167,-6.16 -3.762,-0.227 -7.529,-0.455 -11.293,-0.684 -2.298,-0.959 -4.69,-3.774 -6.846,-5.134 -8.583,-5.422 -30.605,-17.22 -36.963,-1.711 -4.015,9.788 5.999,19.341 9.583,24.303 2.513,3.478 5.733,7.381 7.527,11.294 1.183,2.572 1.386,5.15 2.397,7.871 2.49,6.706 4.655,13.999 7.874,20.196 1.626,3.133 3.42,6.436 5.476,9.239 1.261,1.719 3.423,2.478 3.763,5.134 -2.113,2.956 -2.233,7.549 -3.422,11.296 -5.349,16.867 -3.331,37.831 4.45,50.313 2.389,3.832 8.011,12.05 15.744,8.9 6.761,-2.754 5.253,-11.294 7.186,-18.825 0.44,-1.709 0.171,-2.964 1.028,-4.107 0,0.116 0,0.227 0,0.343 2.054,4.105 4.108,8.212 6.161,12.319 4.559,7.344 12.65,15.018 19.507,20.196 3.557,2.686 6.355,7.328 10.953,8.9 0,-0.116 0,-0.227 0,-0.345 -0.114,0 -0.226,0 -0.341,0 -0.89,-1.388 -2.287,-1.964 -3.422,-3.078 -2.678,-2.627 -5.659,-5.893 -7.874,-8.9 -6.236,-8.467 -11.746,-17.733 -16.769,-27.38 -2.398,-4.607 -4.484,-9.688 -6.504,-14.377 -0.78,-1.805 -0.77,-4.538 -2.394,-5.475 -2.215,3.435 -5.476,6.212 -7.19,10.268 -2.739,6.483 -3.091,14.389 -4.104,22.589 -0.601,0.216 -0.335,0.067 -0.687,0.341 -4.768,-1.151 -6.443,-6.056 -8.212,-10.266 -4.483,-10.649 -5.314,-27.79 -1.372,-40.046 1.019,-3.168 5.632,-13.156 3.764,-16.085 -0.888,-2.923 -3.829,-4.613 -5.473,-6.848 -2.036,-2.76 -4.069,-6.395 -5.478,-9.582 -3.666,-8.302 -5.378,-17.62 -9.24,-26.012 -1.845,-4.013 -4.965,-8.071 -7.53,-11.637 -2.837,-3.95 -6.013,-6.859 -8.214,-11.639 -0.783,-1.698 -1.844,-4.415 -0.684,-6.16 0.371,-1.178 0.89,-1.67 2.053,-2.054 1.985,-1.529 7.514,0.51 9.583,1.368 5.488,2.282 10.07,4.452 14.718,7.532 2.233,1.48 4.489,4.342 7.186,5.134 1.025,0 2.053,0 3.079,0 4.819,1.108 10.217,0.343 14.718,1.711 7.957,2.415 15.086,6.179 21.564,10.268 19.725,12.456 35.855,30.186 46.887,51.338 1.776,3.407 2.544,6.657 4.107,10.268 3.157,7.285 7.13,14.781 10.268,21.905 3.13,7.108 6.185,14.279 10.611,20.196 2.329,3.107 11.316,4.776 15.4,6.501 2.864,1.211 7.557,2.472 10.268,4.107 5.182,3.127 10.202,6.848 15.062,10.27 2.43,1.708 9.897,5.462 10.267,8.553 z"
   connector-curvature="0"
   id="path19929_2_" />
		</g>
		<g
   transform="matrix(1.25,0,0,1.25,306.19467,-400.68765)"
   id="g19931_2_">
			<path
   style="fill:#ffffff"
   inkscape:connector-curvature="0"
   d="m -387.626,1134.227 c -2.511,-0.045 -4.285,0.276 -6.163,0.684 0,0.114 0,0.231 0,0.343 0.117,0 0.23,0 0.344,0 1.199,2.46 3.311,4.044 4.791,6.161 1.142,2.396 2.281,4.791 3.423,7.187 0.114,-0.114 0.23,-0.227 0.343,-0.341 2.12,-1.494 3.091,-3.883 3.079,-7.532 -0.849,-0.894 -0.973,-2.013 -1.709,-3.078 -0.981,-1.423 -2.873,-2.23 -4.108,-3.424 z"
   connector-curvature="0"
   id="path19933_2_" />
		</g>
	</g><rect
   style="fill:#6c7eb7;stroke:#ffffff;stroke-width:0.25;stroke-miterlimit:10"
   height="98.135002"
   width="296.905"
   stroke-miterlimit="10"
   y="0.63699341"
   x="0.42700195"
   id="rect5947_7_" /><g
   label="Ebene 1"
   groupmode="layer"
   id="layer1_1_"
   transform="translate(-357.20002,-443.51299)">
		<g
   id="g24902_1_">
			
				<radialGradient
   gradientUnits="userSpaceOnUse"
   gradientTransform="matrix(22.3851,0,0,-12.1705,-16831.584,10355.39)"
   r="1.4306999"
   cy="792.4502"
   cx="770.2915"
   id="path3366-8_5_">
				<stop
   id="stop85"
   style="stop-color:#000000"
   offset="0" />
				<stop
   id="stop87"
   style="stop-color:#000000;stop-opacity:0"
   offset="1" />
			</radialGradient>
			
				<path
   inkscape:connector-curvature="0"
   style="fill:url(#radialGradient4103)"
   d="m 443.486,710.883 c 0,9.616 -14.338,17.413 -32.026,17.413 -17.687,0 -32.026,-7.797 -32.026,-17.413 l 0,0 c 0,-9.616 14.339,-17.413 32.026,-17.413 17.688,0 32.026,7.797 32.026,17.413 l 0,0 z"
   type="arc"
   cx="23.857143"
   cy="40"
   rx="17.142857"
   ry="8.5714283"
   id="path3366-8_1_" />
			
				<linearGradient
   gradientTransform="matrix(21.1429,0,0,-21.1429,-15841.631,17335.445)"
   y2="787.19531"
   x2="769.95142"
   y1="787.19531"
   x1="767.4873"
   gradientUnits="userSpaceOnUse"
   id="path3068-5_5_">
				<stop
   id="stop91"
   style="stop-color:#729FCF"
   offset="0" />
				<stop
   id="stop93"
   style="stop-color:#BABDB6"
   offset="0.3158" />
				<stop
   id="stop95"
   style="stop-color:#3465A4"
   offset="1" />
			</linearGradient>
			
				<path
   inkscape:connector-curvature="0"
   style="fill:url(#linearGradient4105);stroke:#ffffff;stroke-width:0.75;stroke-miterlimit:10"
   d="m 411.098,660.449 c -13.868,0 -25.145,4.946 -25.145,11.029 0,0.436 0,40.35 0,40.805 0,6.082 11.276,11.028 25.145,11.028 13.868,0 25.594,-4.946 25.594,-11.028 0,-0.36 0,-40.445 0,-40.805 0,-6.082 -11.726,-11.029 -25.594,-11.029 l 0,0 z"
   stroke-miterlimit="10"
   nodetypes="csszssz"
   id="path3068-5_1_" />
			
				<path
   style="opacity:0.54430003;fill:none;stroke:#ffffff;stroke-width:0.75;stroke-miterlimit:10"
   inkscape:connector-curvature="0"
   d="m 411.114,661.825 c -12.93,0 -23.444,4.61 -23.444,10.282 0,0.406 0,38.618 0,39.042 0,5.673 10.514,10.283 23.444,10.283 12.93,0 23.862,-4.61 23.862,-10.283 0,-0.336 0,-38.706 0,-39.042 0,-5.671 -10.933,-10.282 -23.862,-10.282 z"
   enable-background="new    "
   stroke-miterlimit="10"
   nodetypes="csszssz"
   id="path4174-0_1_" />
			
				<path
   style="fill:#3465a4;stroke:#ffffff;stroke-width:0.75;stroke-miterlimit:10"
   inkscape:connector-curvature="0"
   d="m 434.741,671.328 c 0,5.117 -10.536,9.265 -23.532,9.265 -12.998,0 -23.533,-4.147 -23.533,-9.265 0,-5.118 10.536,-9.264 23.533,-9.264 12.996,0 23.532,4.147 23.532,9.264 z"
   stroke-miterlimit="10"
   type="arc"
   cx="24"
   cy="14.071428"
   rx="12.857142"
   ry="5.5"
   id="path3364-7_1_" />
			
				<linearGradient
   gradientTransform="matrix(21.1429,0,0,-21.1429,-15844.662,17391.32)"
   y2="789.33917"
   x2="768.26282"
   y1="790.21582"
   x1="768.28662"
   gradientUnits="userSpaceOnUse"
   id="path6922-9_5_">
				<stop
   id="stop101"
   style="stop-color:#FFFFFF"
   offset="0" />
				<stop
   id="stop103"
   style="stop-color:#FFFFFF;stop-opacity:0"
   offset="1" />
			</linearGradient>
			
				<path
   inkscape:connector-curvature="0"
   style="opacity:0.49370003;fill:url(#linearGradient4107)"
   d="m 392.933,679.521 0.63,29.618 8.066,2.27 -0.253,-29.494 c 0,0 3.655,0 9.58,-0.377 -9.204,-0.412 -19.734,-4.367 -23.317,-6.933 2.501,3.692 5.294,4.916 5.294,4.916 l 0,0 z"
   enable-background="new    "
   nodetypes="ccccccc"
   id="path6922-9_1_" />
			<path
   style="fill:#204a87"
   inkscape:connector-curvature="0"
   d="m 390.859,707.209 h 1.343 v -5.319 l 2.097,4.639 c 0.238,0.557 0.579,0.764 1.24,0.764 0.662,0 0.981,-0.207 1.23,-0.764 l 2.086,-4.639 v 5.319 h 1.354 v -5.319 c 0,-0.517 -0.207,-0.766 -0.641,-0.899 -1.022,-0.31 -1.705,-0.04 -2.015,0.651 l -2.056,4.586 -1.982,-4.586 c -0.299,-0.691 -0.992,-0.961 -2.025,-0.651 -0.423,0.134 -0.629,0.383 -0.629,0.899 v 5.319 l -0.002,0 0,0 z"
   id="path12-0_1_" />
			<path
   style="fill:#204a87"
   inkscape:connector-curvature="0"
   d="m 401.323,702.882 h 1.354 v 2.923 c -0.011,0.165 0.051,0.536 0.785,0.548 0.381,0.01 2.912,0 2.933,0 v -3.492 h 1.354 c 0,0 0,4.762 0,4.783 0,1.178 -1.457,1.436 -2.138,1.446 h -4.255 v -0.899 c 0.01,0 4.255,0 4.265,0 0.868,-0.093 0.765,-0.527 0.765,-0.672 v -0.351 h -2.862 c -1.333,-0.01 -2.19,-0.6 -2.2,-1.271 -0.001,-0.061 0.03,-2.996 -0.001,-3.015 l 0,0 0,0 z"
   id="path14-5_1_" />
			<path
   style="fill:#204a87"
   inkscape:connector-curvature="0"
   d="m 430.35,699.493 c -0.827,-0.021 -1.467,0.063 -2.004,0.289 -0.155,0.063 -0.403,0.063 -0.423,0.258 0.083,0.083 0.093,0.217 0.165,0.33 0.124,0.207 0.341,0.486 0.537,0.631 0.217,0.165 0.434,0.33 0.661,0.475 0.403,0.248 0.857,0.393 1.25,0.641 0.227,0.145 0.455,0.331 0.682,0.486 0.113,0.082 0.186,0.216 0.33,0.268 0,-0.01 0,-0.02 0,-0.031 -0.073,-0.092 -0.093,-0.227 -0.165,-0.33 -0.104,-0.103 -0.207,-0.196 -0.31,-0.3 -0.299,-0.402 -0.671,-0.753 -1.074,-1.043 -0.331,-0.226 -1.053,-0.536 -1.188,-0.919 0,0 -0.01,-0.011 -0.021,-0.021 0.228,-0.021 0.496,-0.104 0.713,-0.165 0.351,-0.094 0.671,-0.072 1.033,-0.166 0.165,-0.041 0.33,-0.094 0.495,-0.145 0,-0.031 0,-0.063 0,-0.093 -0.185,-0.187 -0.32,-0.435 -0.516,-0.61 -0.527,-0.453 -1.105,-0.898 -1.705,-1.27 -0.32,-0.207 -0.734,-0.341 -1.074,-0.517 -0.124,-0.062 -0.331,-0.093 -0.403,-0.196 -0.186,-0.228 -0.289,-0.527 -0.423,-0.795 -0.3,-0.568 -0.589,-1.199 -0.847,-1.799 -0.187,-0.401 -0.3,-0.805 -0.527,-1.177 -1.064,-1.755 -2.221,-2.819 -3.998,-3.863 -0.382,-0.217 -0.836,-0.31 -1.322,-0.423 -0.258,-0.012 -0.516,-0.031 -0.775,-0.043 -0.165,-0.07 -0.33,-0.268 -0.475,-0.36 -0.588,-0.372 -2.106,-1.177 -2.541,-0.114 -0.279,0.672 0.413,1.332 0.65,1.674 0.176,0.238 0.403,0.506 0.528,0.775 0.072,0.176 0.093,0.361 0.165,0.547 0.165,0.455 0.32,0.961 0.537,1.385 0.113,0.217 0.238,0.443 0.382,0.641 0.083,0.113 0.228,0.164 0.258,0.35 -0.144,0.208 -0.154,0.518 -0.238,0.775 -0.371,1.168 -0.227,2.613 0.3,3.471 0.166,0.258 0.559,0.826 1.085,0.609 0.464,-0.186 0.361,-0.774 0.496,-1.291 0.031,-0.123 0.01,-0.207 0.072,-0.289 0,0.01 0,0.021 0,0.021 0.144,0.29 0.289,0.567 0.423,0.857 0.321,0.507 0.878,1.032 1.343,1.384 0.248,0.186 0.444,0.507 0.754,0.621 0,-0.012 0,-0.021 0,-0.031 -0.01,0 -0.01,0 -0.021,0 -0.061,-0.094 -0.154,-0.135 -0.237,-0.207 -0.186,-0.186 -0.393,-0.413 -0.537,-0.62 -0.434,-0.578 -0.816,-1.219 -1.157,-1.88 -0.166,-0.32 -0.31,-0.672 -0.444,-0.992 -0.062,-0.123 -0.062,-0.309 -0.165,-0.371 -0.156,0.227 -0.383,0.424 -0.496,0.702 -0.196,0.444 -0.217,0.991 -0.289,1.56 -0.042,0.01 -0.021,0 -0.042,0.021 -0.33,-0.082 -0.444,-0.424 -0.568,-0.713 -0.31,-0.733 -0.362,-1.91 -0.093,-2.758 0.072,-0.217 0.382,-0.898 0.258,-1.105 -0.062,-0.196 -0.269,-0.311 -0.383,-0.465 -0.134,-0.197 -0.279,-0.444 -0.371,-0.662 -0.249,-0.578 -0.373,-1.219 -0.641,-1.797 -0.124,-0.27 -0.341,-0.548 -0.517,-0.795 -0.196,-0.279 -0.414,-0.476 -0.568,-0.807 -0.051,-0.113 -0.124,-0.299 -0.041,-0.423 0.021,-0.083 0.062,-0.113 0.145,-0.134 0.134,-0.113 0.516,0.031 0.65,0.092 0.382,0.155 0.702,0.3 1.022,0.518 0.145,0.104 0.3,0.299 0.485,0.352 0.073,0 0.145,0 0.217,0 0.33,0.07 0.703,0.02 1.012,0.113 0.547,0.176 1.043,0.433 1.488,0.713 1.354,0.857 2.469,2.076 3.222,3.531 0.125,0.238 0.176,0.455 0.29,0.703 0.217,0.506 0.485,1.023 0.703,1.519 0.217,0.485 0.423,0.981 0.733,1.385 0.155,0.217 0.774,0.33 1.054,0.444 0.206,0.092 0.527,0.176 0.713,0.289 0.351,0.217 0.702,0.465 1.033,0.702 0.167,0.123 0.683,0.381 0.715,0.588 l 0,0 0,0 z"
   id="path16-3_1_" />
			<path
   style="fill:#00546b"
   inkscape:connector-curvature="0"
   d="m 419.813,690.517 c -0.176,0 -0.3,0.021 -0.424,0.051 0,0 0,0.012 0,0.021 0.01,0 0.01,0 0.021,0 0.083,0.165 0.227,0.278 0.331,0.423 0.083,0.165 0.154,0.331 0.238,0.495 0.01,-0.009 0.02,-0.02 0.02,-0.02 0.145,-0.104 0.217,-0.269 0.217,-0.517 -0.062,-0.073 -0.072,-0.144 -0.124,-0.217 -0.063,-0.103 -0.197,-0.154 -0.279,-0.236 l 0,0 0,0 z"
   id="path18-4_1_" />
			<path
   style="fill:#f57900"
   inkscape:connector-curvature="0"
   d="m 408.781,707.209 h 3.884 c 0.454,0 0.888,-0.093 1.24,-0.259 0.588,-0.268 0.868,-0.629 0.868,-1.104 v -0.992 c 0,-0.382 -0.321,-0.743 -0.961,-0.991 -0.33,-0.124 -0.744,-0.196 -1.146,-0.196 h -1.632 c -0.548,0 -0.806,-0.165 -0.878,-0.526 -0.01,-0.041 -0.01,-0.084 -0.01,-0.124 v -0.609 c 0,-0.03 0,-0.073 0.01,-0.114 0.072,-0.279 0.217,-0.352 0.692,-0.402 0.042,0 0.093,0 0.125,0 h 3.853 v -0.899 h -3.781 c -0.547,0 -0.837,0.03 -1.094,0.114 -0.796,0.248 -1.147,0.641 -1.147,1.332 v 0.785 c 0,0.609 0.682,1.126 1.838,1.25 0.125,0.01 0.259,0.01 0.393,0.01 h 1.394 c 0.051,0 0.104,0 0.145,0.011 0.423,0.042 0.609,0.114 0.733,0.269 0.083,0.083 0.104,0.156 0.104,0.248 v 0.785 c 0,0.093 -0.062,0.217 -0.186,0.32 -0.124,0.104 -0.32,0.176 -0.579,0.187 -0.052,0 -0.082,0.011 -0.134,0.011 l -3.729,-0.001 v 0.895 l -0.002,0 0,0 z"
   id="path20-1_1_" />
			<path
   style="fill:#f57900"
   inkscape:connector-curvature="0"
   d="m 423.18,705.649 c 0,0.919 0.692,1.436 2.076,1.539 0.134,0.01 0.259,0.021 0.393,0.021 h 3.512 v -0.897 h -3.543 c -0.785,0 -1.085,-0.197 -1.085,-0.672 v -4.649 h -1.354 v 4.658 l 0.001,0 0,0 z"
   id="path22-0_1_" />
			<path
   style="fill:#f57900"
   inkscape:connector-curvature="0"
   d="m 415.629,705.691 v -3.202 c 0,-0.816 0.579,-1.313 1.705,-1.469 0.124,-0.01 0.248,-0.02 0.362,-0.02 h 2.562 c 0.133,0 0.247,0.01 0.381,0.02 1.126,0.156 1.694,0.652 1.694,1.468 l 0,3.202 c 0,0.662 -0.238,1.012 -0.796,1.25 l 1.322,1.198 h -1.56 l -1.075,-0.971 -1.085,0.062 h -1.445 c -0.238,0 -0.506,-0.031 -0.786,-0.104 -0.855,-0.235 -1.279,-0.69 -1.279,-1.434 l 0,0 0,0 z m 1.457,-0.073 c 0,0.041 0.021,0.083 0.031,0.135 0.072,0.371 0.423,0.578 0.96,0.578 h 1.219 l -1.115,-1.012 h 1.559 l 0.981,0.888 c 0.186,-0.103 0.3,-0.248 0.341,-0.435 0.01,-0.041 0.01,-0.092 0.01,-0.133 v -3.068 c 0,-0.041 0,-0.082 -0.01,-0.124 -0.072,-0.352 -0.424,-0.548 -0.95,-0.548 h -2.035 c -0.599,0 -0.992,0.259 -0.992,0.672 v 3.047 l 0.001,0 0,0 z"
   id="path24-4_1_" />
			<path
   style="fill:#f57900"
   inkscape:connector-curvature="0"
   d="m 429.781,707.22 h 0.196 v -0.754 h 0.259 v -0.155 h -0.724 v 0.155 h 0.269 v 0.754 l 0,0 z m 1.498,0 h 0.186 v -0.909 h -0.279 l -0.227,0.619 -0.248,-0.619 h -0.269 v 0.909 h 0.176 v -0.693 h 0.01 l 0.258,0.693 h 0.135 l 0.258,-0.693 v 0.693 l 0,0 z"
   id="path26-8_1_" />
			<rect
   style="fill:none"
   height="70.939003"
   width="70.939003"
   y="658.32501"
   x="375.91699"
   id="rect2300_1_" />
		</g>
	</g><rect
   style="opacity:0.66000001;fill:#f2f2f2;stroke:#050000;stroke-width:2"
   height="29.125"
   width="110.711"
   enable-background="new    "
   y="200.776"
   x="111.72098"
   id="rect24376-3_4_" /><path
   style="fill:none;stroke:#000000"
   inkscape:connector-curvature="0"
   d="m 130.79098,230.46601 v 80.618"
   connector-curvature="0"
   id="path24378-07_4_" /><path
   style="fill:none;stroke:#000000"
   inkscape:connector-curvature="0"
   d="m 167.24598,229.72901 -0.593,82.585"
   connector-curvature="0"
   id="path24380-03_4_" /><path
   style="fill:none;stroke:#000000;stroke-width:1.01979995"
   inkscape:connector-curvature="0"
   d="m 190.30998,229.72901 -1.191,81.8"
   connector-curvature="0"
   id="path24384-05_4_" /><path
   style="fill:none;stroke:#000000"
   inkscape:connector-curvature="0"
   d="m 207.76098,228.74701 0.594,82.585"
   connector-curvature="0"
   id="path24386-7_4_" /><rect
   style="fill:none;stroke:#050000;stroke-width:2.49600005"
   height="110.526"
   width="110.712"
   y="200.776"
   x="112.33698"
   id="rect24376-5-32_4_" /><ellipse
   style="fill:#6c7eb7;stroke:#050000;stroke-width:5.5"
   sodipodi:ry="37.625999"
   sodipodi:rx="72.281998"
   sodipodi:cy="491.42599"
   sodipodi:cx="506.83899"
   d="m 579.12099,491.42599 c 0,20.78027 -32.36176,37.626 -72.282,37.626 -39.92025,0 -72.282,-16.84573 -72.282,-37.626 0,-20.78026 32.36175,-37.62599 72.282,-37.62599 39.92024,0 72.282,16.84573 72.282,37.62599 z"
   ry="37.625999"
   rx="72.281998"
   cy="491.42599"
   cx="506.83899"
   id="ellipse3860_1_"
   transform="translate(-357.20002,-443.51299)" /><path
   style="stroke:#ffffff;stroke-width:2;stroke-linejoin:round"
   inkscape:connector-curvature="0"
   id="path122"
   d="m 123.89498,30.090006 h -18.318 l -7.921001,40.101 h 9.407001 l 1.98,-10.397 h 8.912 c 8.417,0.495 17.822,-6.435 17.822,-18.317 0,-6.931 -3.961,-10.892 -11.882,-11.387 z m -6.931,22.278 h -5.941 l 2.475,-14.852 h 6.437 c 3.465,0 5.94,1.484 5.94,4.456 -0.495,8.416 -4.456,9.901 -8.911,10.396 z" /><path
   style="stroke:#ffffff;stroke-width:2;stroke-linejoin:round"
   inkscape:connector-curvature="0"
   d="m 132.80598,59.794006 7.921,-40.101 h 9.407 l -1.98,10.397 h 8.912 c 7.922,0.495 10.892,4.456 9.901,9.406 l -3.466,20.298 h -9.901 l 3.466,-18.317 c 0.495,-2.476 0.495,-3.96 -2.97,-3.96 h -7.426 l -4.456,22.278 h -9.408 z"
   id="h_1_" /><path
   style="stroke:#ffffff;stroke-width:2;stroke-linejoin:round"
   inkscape:connector-curvature="0"
   id="path125"
   d="m 190.23498,30.090006 h -18.318 l -7.921,40.101 h 9.407 l 1.979,-10.397 h 8.913 c 8.416,0.495 17.824,-6.435 17.824,-18.317 -0.001,-6.931 -3.963,-10.892 -11.884,-11.387 z m -6.931,22.278 h -5.941 l 2.475,-14.852 h 6.436 c 3.466,0 5.941,1.484 5.941,4.456 -0.494,8.416 -4.456,9.901 -8.911,10.396 z" /><text
   style="font-size:19.71870041px;font-family:MyriadPro-Regular"
   y="221.77118"
   x="138.36148"
   id="text134"
   font-size="19.7187"><tspan
     id="tspan3501"
     style="font-style:normal;font-variant:normal;font-weight:normal;font-stretch:normal;font-family:DejaVu Sans;-inkscape-font-specification:DejaVu Sans">Users</tspan></text>
<path
   style="fill:#00ff00"
   inkscape:connector-curvature="0"
   id="path136"
   d="m 154.04998,214.05001 c 0.009,0.019 0.013,0.04 0.019,0.061 -0.007,-0.022 -0.013,-0.043 -0.02,-0.064 0,0 0.001,0.001 0.001,0.003 z" /><circle
   style="fill:none"
   sodipodi:ry="3.994"
   sodipodi:rx="3.994"
   sodipodi:cy="656.5"
   sodipodi:cx="514.349"
   d="m 518.343,656.5 c 0,2.20583 -1.78818,3.994 -3.994,3.994 -2.20583,0 -3.994,-1.78817 -3.994,-3.994 0,-2.20583 1.78817,-3.994 3.994,-3.994 2.20582,0 3.994,1.78817 3.994,3.994 z"
   id="circle138"
   r="3.994"
   cy="656.5"
   cx="514.349"
   transform="translate(-357.20002,-443.51299)" /><circle
   style="fill:none"
   sodipodi:ry="3.994"
   sodipodi:rx="3.994"
   sodipodi:cy="656.5"
   sodipodi:cx="514.349"
   d="m 518.343,656.5 c 0,2.20583 -1.78818,3.994 -3.994,3.994 -2.20583,0 -3.994,-1.78817 -3.994,-3.994 0,-2.20583 1.78817,-3.994 3.994,-3.994 2.20582,0 3.994,1.78817 3.994,3.994 z"
   id="circle140"
   r="3.994"
   cy="656.5"
   cx="514.349"
   transform="translate(-357.20002,-443.51299)" /><circle
   style="fill:none"
   sodipodi:ry="3.994"
   sodipodi:rx="3.994"
   sodipodi:cy="656.5"
   sodipodi:cx="514.349"
   d="m 518.343,656.5 c 0,2.20583 -1.78818,3.994 -3.994,3.994 -2.20583,0 -3.994,-1.78817 -3.994,-3.994 0,-2.20583 1.78817,-3.994 3.994,-3.994 2.20582,0 3.994,1.78817 3.994,3.994 z"
   id="circle142"
   r="3.994"
   cy="656.5"
   cx="514.349"
   transform="translate(-357.20002,-443.51299)" /><circle
   style="fill:none"
   sodipodi:ry="3.994"
   sodipodi:rx="3.994"
   sodipodi:cy="656.5"
   sodipodi:cx="514.349"
   d="m 518.343,656.5 c 0,2.20583 -1.78818,3.994 -3.994,3.994 -2.20583,0 -3.994,-1.78817 -3.994,-3.994 0,-2.20583 1.78817,-3.994 3.994,-3.994 2.20582,0 3.994,1.78817 3.994,3.994 z"
   id="circle144"
   r="3.994"
   cy="656.5"
   cx="514.349"
   transform="translate(-357.20002,-443.51299)" /><circle
   style="fill:none"
   sodipodi:ry="3.994"
   sodipodi:rx="3.994"
   sodipodi:cy="656.5"
   sodipodi:cx="514.349"
   d="m 518.343,656.5 c 0,2.20583 -1.78818,3.994 -3.994,3.994 -2.20583,0 -3.994,-1.78817 -3.994,-3.994 0,-2.20583 1.78817,-3.994 3.994,-3.994 2.20582,0 3.994,1.78817 3.994,3.994 z"
   id="circle146"
   r="3.994"
   cy="656.5"
   cx="514.349"
   transform="translate(-357.20002,-443.51299)" /><circle
   style="fill:none"
   sodipodi:ry="3.994"
   sodipodi:rx="3.994"
   sodipodi:cy="656.5"
   sodipodi:cx="514.349"
   d="m 518.343,656.5 c 0,2.20583 -1.78818,3.994 -3.994,3.994 -2.20583,0 -3.994,-1.78817 -3.994,-3.994 0,-2.20583 1.78817,-3.994 3.994,-3.994 2.20582,0 3.994,1.78817 3.994,3.994 z"
   id="circle148"
   r="3.994"
   cy="656.5"
   cx="514.349"
   transform="translate(-357.20002,-443.51299)" /><path
   style="fill:none"
   inkscape:connector-curvature="0"
   id="path150"
   d="m 154.09198,214.18601 c -0.018,-0.045 -0.026,-0.092 -0.042,-0.137 0.014,0.045 0.03,0.089 0.042,0.137 z" /><path
   style="fill:none"
   inkscape:connector-curvature="0"
   id="path152"
   d="m 157.14098,209.69701 c 1.814,-0.005 3.293,1.468 3.298,3.282 0.004,1.813 -1.469,3.293 -3.281,3.298 -0.524,0.001 -1.014,-0.133 -1.453,-0.349 0.04,-1.768 -0.458,-3.277 -1.526,-4.332 0.522,-1.114 1.647,-1.895 2.962,-1.899 z" /><path
   style="stroke:#000000"
   inkscape:connector-curvature="0"
   d="m 131.85298,171.43201 -6.519,-6.52 6.519,22.816 6.521,-22.816 -6.521,6.52 z"
   connector-curvature="0"
   id="path24760-16_8_" /><line
   style="fill:none;stroke:#000000;stroke-width:0.80000001"
   id="line155"
   y2="171.56897"
   x2="132.069"
   y1="96.312012"
   x1="132.069" /><path
   style="stroke:#000000"
   inkscape:connector-curvature="0"
   d="m 163.35498,112.61001 6.519,6.52 -6.519,-22.817004 -6.521,22.817004 6.521,-6.52 z"
   connector-curvature="0"
   id="path24760-16_7_" /><line
   style="fill:none;stroke:#000000;stroke-width:0.80000001"
   id="line158"
   y2="112.47302"
   x2="163.13898"
   y1="187.729"
   x1="163.13898" /><rect
   style="fill:#336791;stroke:#ffffff;stroke-width:0.25;stroke-miterlimit:10"
   height="159.97"
   width="516.23798"
   stroke-miterlimit="10"
   y="173.125"
   x="384.57196"
   id="rect5947_2_" /><rect
   style="opacity:0.66000001;fill:#f2f2f2;stroke:#050000;stroke-width:2"
   height="29.125999"
   width="110.711"
   enable-background="new    "
   y="203.16199"
   x="663.6499"
   id="rect24376-3_6_" /><path
   style="fill:none;stroke:#000000"
   inkscape:connector-curvature="0"
   d="m 719.17493,232.11601 -0.593,82.585"
   connector-curvature="0"
   id="path24380-03_6_" /><path
   style="fill:none;stroke:#000000;stroke-width:1.01979995"
   inkscape:connector-curvature="0"
   d="m 742.23893,232.11601 -1.191,81.8"
   connector-curvature="0"
   id="path24384-05_6_" /><path
   style="fill:none;stroke:#000000"
   inkscape:connector-curvature="0"
   d="m 760.68993,231.13301 0.594,82.585"
   connector-curvature="0"
   id="path24386-7_6_" /><rect
   style="fill:none;stroke:#050000;stroke-width:2.49600005"
   height="110.527"
   width="110.712"
   y="203.16199"
   x="664.26605"
   id="rect24376-5-32_6_" /><text
   style="font-size:19.71870041px;font-family:MyriadPro-Regular"
   y="224.1579"
   x="698.29016"
   id="text167"
   font-size="19.7187"><tspan
     id="tspan3503"
     style="font-style:normal;font-variant:normal;font-weight:normal;font-stretch:normal;font-family:DejaVu Sans;-inkscape-font-specification:DejaVu Sans">Test</tspan></text>
<path
   style="fill:#00ff00"
   inkscape:connector-curvature="0"
   id="path169"
   d="m 869.97893,216.43601 c 0.01,0.019 0.013,0.04 0.019,0.062 -0.01,-0.023 -0.013,-0.045 -0.02,-0.065 0,0 10e-4,0.001 10e-4,0.003 z" /><circle
   style="fill:none"
   sodipodi:ry="3.9949999"
   sodipodi:rx="3.9949999"
   sodipodi:cy="658.88599"
   sodipodi:cx="1230.278"
   d="m 1234.273,658.88599 c 0,2.20637 -1.7887,3.995 -3.995,3.995 -2.2064,0 -3.995,-1.78863 -3.995,-3.995 0,-2.20638 1.7886,-3.995 3.995,-3.995 2.2063,0 3.995,1.78862 3.995,3.995 z"
   id="circle171"
   r="3.9949999"
   cy="658.88599"
   cx="1230.278"
   transform="translate(-357.20002,-443.51299)" /><circle
   style="fill:none"
   sodipodi:ry="3.9949999"
   sodipodi:rx="3.9949999"
   sodipodi:cy="658.88599"
   sodipodi:cx="1230.278"
   d="m 1234.273,658.88599 c 0,2.20637 -1.7887,3.995 -3.995,3.995 -2.2064,0 -3.995,-1.78863 -3.995,-3.995 0,-2.20638 1.7886,-3.995 3.995,-3.995 2.2063,0 3.995,1.78862 3.995,3.995 z"
   id="circle173"
   r="3.9949999"
   cy="658.88599"
   cx="1230.278"
   transform="translate(-357.20002,-443.51299)" /><circle
   style="fill:none"
   sodipodi:ry="3.9949999"
   sodipodi:rx="3.9949999"
   sodipodi:cy="658.88599"
   sodipodi:cx="1230.278"
   d="m 1234.273,658.88599 c 0,2.20637 -1.7887,3.995 -3.995,3.995 -2.2064,0 -3.995,-1.78863 -3.995,-3.995 0,-2.20638 1.7886,-3.995 3.995,-3.995 2.2063,0 3.995,1.78862 3.995,3.995 z"
   id="circle175"
   r="3.9949999"
   cy="658.88599"
   cx="1230.278"
   transform="translate(-357.20002,-443.51299)" /><circle
   style="fill:none"
   sodipodi:ry="3.9949999"
   sodipodi:rx="3.9949999"
   sodipodi:cy="658.88599"
   sodipodi:cx="1230.278"
   d="m 1234.273,658.88599 c 0,2.20637 -1.7887,3.995 -3.995,3.995 -2.2064,0 -3.995,-1.78863 -3.995,-3.995 0,-2.20638 1.7886,-3.995 3.995,-3.995 2.2063,0 3.995,1.78862 3.995,3.995 z"
   id="circle177"
   r="3.9949999"
   cy="658.88599"
   cx="1230.278"
   transform="translate(-357.20002,-443.51299)" /><circle
   style="fill:none"
   sodipodi:ry="3.9949999"
   sodipodi:rx="3.9949999"
   sodipodi:cy="658.88599"
   sodipodi:cx="1230.278"
   d="m 1234.273,658.88599 c 0,2.20637 -1.7887,3.995 -3.995,3.995 -2.2064,0 -3.995,-1.78863 -3.995,-3.995 0,-2.20638 1.7886,-3.995 3.995,-3.995 2.2063,0 3.995,1.78862 3.995,3.995 z"
   id="circle179"
   r="3.9949999"
   cy="658.88599"
   cx="1230.278"
   transform="translate(-357.20002,-443.51299)" /><circle
   style="fill:none"
   sodipodi:ry="3.9949999"
   sodipodi:rx="3.9949999"
   sodipodi:cy="658.88599"
   sodipodi:cx="1230.278"
   d="m 1234.273,658.88599 c 0,2.20637 -1.7887,3.995 -3.995,3.995 -2.2064,0 -3.995,-1.78863 -3.995,-3.995 0,-2.20638 1.7886,-3.995 3.995,-3.995 2.2063,0 3.995,1.78862 3.995,3.995 z"
   id="circle181"
   r="3.9949999"
   cy="658.88599"
   cx="1230.278"
   transform="translate(-357.20002,-443.51299)" /><path
   style="fill:none"
   inkscape:connector-curvature="0"
   id="path183"
   d="m 897.11193,236.42201 0,-0.016 c 0.038,0.001 0.075,0.015 0.114,0.016 h -0.112 z" /><path
   style="fill:#999999"
   inkscape:connector-curvature="0"
   id="path185"
   d="m 897.22393,236.42201 h 0.065 c -0.01,-0.001 -0.017,0.005 -0.027,0.005 -0.013,-0.001 -0.024,-0.006 -0.038,-0.005 z" /><path
   style="fill:none"
   inkscape:connector-curvature="0"
   id="path187"
   d="m 870.02093,216.57301 c -0.018,-0.044 -0.026,-0.093 -0.042,-0.137 0.013,0.045 0.03,0.089 0.042,0.137 z" /><path
   style="fill:none"
   inkscape:connector-curvature="0"
   id="path189"
   d="m 873.06993,212.08401 c 1.814,-0.004 3.293,1.469 3.298,3.281 0,1.813 -1.469,3.295 -3.281,3.299 -0.524,0 -1.014,-0.133 -1.453,-0.35 0.04,-1.768 -0.458,-3.275 -1.526,-4.331 0.522,-1.114 1.647,-1.895 2.962,-1.899 z" /><g
   label="Ebene 1"
   groupmode="layer"
   id="layer1_5_"
   transform="translate(-357.20002,-443.51299)">
		<g
   id="g24902_3_">
			
				<radialGradient
   gradientUnits="userSpaceOnUse"
   gradientTransform="matrix(22.3851,0,0,-12.1705,-16831.584,10355.39)"
   r="1.4306999"
   cy="792.20508"
   cx="805.68597"
   id="path3366-8_6_">
				<stop
   id="stop194"
   style="stop-color:#000000"
   offset="0" />
				<stop
   id="stop196"
   style="stop-color:#000000;stop-opacity:0"
   offset="1" />
			</radialGradient>
			
				<path
   inkscape:connector-curvature="0"
   style="fill:url(#radialGradient4109)"
   d="m 1235.793,713.863 c 0,9.617 -14.338,17.413 -32.025,17.413 -17.687,0 -32.027,-7.796 -32.027,-17.413 l 0,0 c 0,-9.616 14.339,-17.412 32.027,-17.412 17.688,0 32.025,7.796 32.025,17.412 l 0,0 z"
   type="arc"
   cx="23.857143"
   cy="40"
   rx="17.142857"
   ry="8.5714283"
   id="path3366-8_3_" />
			
				<linearGradient
   gradientTransform="matrix(21.1429,0,0,-21.1429,-15841.631,17335.445)"
   y2="787.05371"
   x2="807.42499"
   y1="787.05371"
   x1="804.96143"
   gradientUnits="userSpaceOnUse"
   id="path3068-5_6_">
				<stop
   id="stop200"
   style="stop-color:#729FCF"
   offset="0" />
				<stop
   id="stop202"
   style="stop-color:#BABDB6"
   offset="0.3158" />
				<stop
   id="stop204"
   style="stop-color:#3465A4"
   offset="1" />
			</linearGradient>
			
				<path
   inkscape:connector-curvature="0"
   style="fill:url(#linearGradient4111);stroke:#050000;stroke-width:0.75;stroke-miterlimit:10"
   d="m 1203.404,663.431 c -13.867,0 -25.145,4.945 -25.145,11.028 0,0.437 0,40.35 0,40.805 0,6.082 11.277,11.029 25.145,11.029 13.868,0 25.594,-4.947 25.594,-11.029 0,-0.359 0,-40.444 0,-40.805 0,-6.083 -11.726,-11.028 -25.594,-11.028 l 0,0 z"
   stroke-miterlimit="10"
   nodetypes="csszssz"
   id="path3068-5_3_" />
			
				<path
   style="opacity:0.54430003;fill:none;stroke:#050000;stroke-width:0.75;stroke-miterlimit:10"
   inkscape:connector-curvature="0"
   d="m 1203.42,664.806 c -12.93,0 -23.443,4.61 -23.443,10.283 0,0.406 0,38.618 0,39.042 0,5.672 10.514,10.282 23.443,10.282 12.929,0 23.863,-4.61 23.863,-10.282 0,-0.336 0,-38.706 0,-39.042 0,-5.673 -10.933,-10.283 -23.863,-10.283 z"
   enable-background="new    "
   stroke-miterlimit="10"
   nodetypes="csszssz"
   id="path4174-0_3_" />
			
				<path
   style="fill:#3465a4;stroke:#050000;stroke-width:0.5;stroke-miterlimit:10"
   inkscape:connector-curvature="0"
   d="m 1227.048,674.31 c 0,5.116 -10.536,9.265 -23.532,9.265 -12.998,0 -23.533,-4.148 -23.533,-9.265 0,-5.117 10.535,-9.265 23.533,-9.265 12.996,0 23.532,4.147 23.532,9.265 z"
   stroke-miterlimit="10"
   type="arc"
   cx="24"
   cy="14.071428"
   rx="12.857142"
   ry="5.5"
   id="path3364-7_3_" />
			
				<linearGradient
   gradientTransform="matrix(21.1429,0,0,-21.1429,-15844.662,17391.32)"
   y2="789.19812"
   x2="805.73639"
   y1="790.07422"
   x1="805.76031"
   gradientUnits="userSpaceOnUse"
   id="path6922-9_6_">
				<stop
   id="stop210"
   style="stop-color:#FFFFFF"
   offset="0" />
				<stop
   id="stop212"
   style="stop-color:#FFFFFF;stop-opacity:0"
   offset="1" />
			</linearGradient>
			
				<path
   inkscape:connector-curvature="0"
   style="opacity:0.49370003;fill:url(#linearGradient4113)"
   d="m 1185.24,682.502 0.63,29.619 8.066,2.27 -0.253,-29.494 c 0,0 3.655,0 9.58,-0.378 -9.203,-0.412 -19.734,-4.367 -23.317,-6.933 2.5,3.692 5.294,4.916 5.294,4.916 l 0,0 z"
   enable-background="new    "
   nodetypes="ccccccc"
   id="path6922-9_3_" />
			<rect
   style="fill:none"
   height="70.939003"
   width="70.938004"
   y="661.30603"
   x="1168.224"
   id="rect2300_3_" />
		</g>
	</g><path
   style="stroke:#000000;stroke-width:2"
   inkscape:connector-curvature="0"
   d="m 854.01493,269.97401 c 0.25,-2.075 0.174,-2.38 1.721,-2.044 l 0.393,0.034 c 1.189,0.054 2.746,-0.19 3.66,-0.616 1.967,-0.912 3.134,-2.437 1.193,-2.036 -4.426,0.913 -4.73,-0.584 -4.73,-0.584 4.674,-6.935 6.628,-15.736 4.941,-17.89 -4.6,-5.877 -12.561,-3.098 -12.693,-3.026 l -0.043,0.009 c -0.874,-0.183 -1.852,-0.29 -2.951,-0.308 -2.003,-0.033 -3.523,0.523 -4.676,1.398 0,0 -14.201,-5.851 -13.541,7.358 0.141,2.81 4.027,21.261 8.664,15.688 1.695,-2.038 3.332,-3.761 3.332,-3.761 0.813,0.541 1.787,0.815 2.809,0.717 l 0.078,-0.067 c -0.025,0.253 -0.014,0.501 0.032,0.794 -1.194,1.335 -0.844,1.568 -3.231,2.06 -2.416,0.498 -0.996,1.385 -0.07,1.616 1.123,0.28 3.723,0.679 5.479,-1.779 l -0.07,0.28 c 0.469,0.375 0.438,2.694 0.504,4.352 0.066,1.656 0.178,3.203 0.516,4.115 0.338,0.911 0.736,3.26 3.875,2.586 2.619,-0.561 4.624,-1.369 4.808,-8.896"
   id="path3010-1_3_" /><g
   label="Ebene 1"
   groupmode="layer"
   id="layer1_4_"
   transform="translate(-357.20002,-443.51299)">
		<g
   id="g35053_1_">
			<path
   style="stroke:#000000;stroke-width:0.75"
   inkscape:connector-curvature="0"
   d="m 1211.072,713.43 c 0.246,-2.045 0.172,-2.344 1.694,-2.013 l 0.386,0.034 c 1.171,0.053 2.701,-0.188 3.602,-0.606 1.937,-0.898 3.084,-2.398 1.176,-2.004 -4.355,0.897 -4.654,-0.576 -4.654,-0.576 4.598,-6.823 6.52,-15.484 4.861,-17.604 -4.527,-5.782 -12.36,-3.048 -12.492,-2.978 l -0.041,0.009 c -0.861,-0.179 -1.824,-0.286 -2.906,-0.303 -1.971,-0.032 -3.466,0.517 -4.6,1.376 0,0 -13.977,-5.757 -13.326,7.241 0.139,2.765 3.963,20.923 8.526,15.438 1.668,-2.005 3.279,-3.7 3.279,-3.7 0.801,0.531 1.758,0.803 2.763,0.705 l 0.078,-0.066 c -0.024,0.25 -0.014,0.492 0.031,0.781 -1.176,1.313 -0.83,1.544 -3.18,2.026 -2.378,0.49 -0.98,1.363 -0.069,1.592 1.105,0.275 3.663,0.668 5.392,-1.752 l -0.068,0.276 c 0.461,0.368 0.43,2.651 0.494,4.281 0.066,1.631 0.176,3.152 0.508,4.05 0.332,0.896 0.725,3.207 3.813,2.546 2.581,-0.554 4.554,-1.349 4.733,-8.753"
   id="path3010-1_2_" />
			<path
   style="fill:#336791;stroke:#000000;stroke-width:0.75;stroke-miterlimit:10"
   inkscape:connector-curvature="0"
   d="m 1217.93,708.841 c -4.355,0.897 -4.654,-0.577 -4.654,-0.577 4.598,-6.822 6.52,-15.483 4.861,-17.604 -4.525,-5.781 -12.36,-3.047 -12.491,-2.977 l -0.042,0.008 c -0.861,-0.178 -1.824,-0.285 -2.906,-0.303 -1.971,-0.031 -3.466,0.518 -4.6,1.377 0,0 -13.977,-5.758 -13.326,7.241 0.139,2.765 3.963,20.923 8.526,15.438 1.668,-2.005 3.278,-3.7 3.278,-3.7 0.801,0.531 1.758,0.803 2.764,0.705 l 0.078,-0.066 c -0.025,0.25 -0.014,0.492 0.031,0.781 -1.176,1.313 -0.83,1.544 -3.18,2.026 -2.378,0.49 -0.98,1.363 -0.07,1.592 1.106,0.275 3.664,0.668 5.393,-1.752 l -0.069,0.276 c 0.46,0.368 0.784,2.399 0.729,4.239 -0.054,1.841 -0.09,3.104 0.273,4.092 0.362,0.986 0.725,3.207 3.813,2.546 2.582,-0.554 3.918,-1.986 4.105,-4.376 0.131,-1.701 0.431,-1.449 0.449,-2.969 l 0.24,-0.72 c 0.275,-2.304 0.043,-3.048 1.634,-2.702 l 0.386,0.035 c 1.171,0.053 2.702,-0.188 3.602,-0.606 1.935,-0.899 3.084,-2.399 1.176,-2.004 l 0,0 0,0 z"
   stroke-miterlimit="10"
   id="path3012-5_1_" />
			<path
   style="fill:none;stroke:#ffffff;stroke-width:0.75;stroke-linecap:round;stroke-linejoin:round"
   inkscape:connector-curvature="0"
   d="m 1201.779,710.161 c -0.121,4.287 0.029,8.604 0.449,9.653 0.42,1.049 1.317,3.09 4.407,2.428 2.581,-0.553 3.52,-1.623 3.927,-3.986 0.301,-1.74 0.879,-6.568 0.953,-7.559"
   id="path3014-4_1_" />
			<path
   style="fill:none;stroke:#ffffff;stroke-width:0.75;stroke-linecap:round;stroke-linejoin:round"
   inkscape:connector-curvature="0"
   d="m 1198.076,688.669 c 0,0 -13.986,-5.716 -13.336,7.282 0.139,2.766 3.964,20.924 8.526,15.439 1.667,-2.006 3.176,-3.579 3.176,-3.579"
   id="path3016-1_1_" />
			<path
   style="fill:none;stroke:#ffffff;stroke-width:0.75;stroke-linecap:round;stroke-linejoin:round"
   inkscape:connector-curvature="0"
   d="m 1205.631,687.626 c -0.485,0.152 7.779,-3.02 12.476,2.98 1.659,2.119 -0.263,10.781 -4.862,17.604"
   id="path3018-3_1_" />
			<path
   style="fill:none;stroke:#ffffff;stroke-width:0.75;stroke-linecap:round;stroke-linejoin:bevel"
   inkscape:connector-curvature="0"
   d="m 1213.244,708.211 c 0,0 0.299,1.475 4.655,0.575 1.907,-0.395 0.759,1.105 -1.176,2.005 -1.589,0.737 -5.149,0.926 -5.208,-0.094 -0.15,-2.627 1.875,-1.828 1.729,-2.486 -0.133,-0.594 -1.037,-1.177 -1.636,-2.628 -0.522,-1.267 -7.17,-10.982 1.843,-9.539 0.33,-0.068 -2.35,-8.572 -10.785,-8.711 -8.432,-0.137 -8.154,10.37 -8.154,10.37"
   id="path3020-7_1_" />
			<path
   style="fill:none;stroke:#ffffff;stroke-width:0.75;stroke-linecap:round;stroke-linejoin:round"
   inkscape:connector-curvature="0"
   d="m 1199.418,709.108 c -1.176,1.313 -0.83,1.544 -3.18,2.028 -2.378,0.489 -0.98,1.361 -0.069,1.59 1.106,0.275 3.663,0.668 5.392,-1.752 0.526,-0.736 0,-1.912 -0.727,-2.212 -0.35,-0.144 -0.816,-0.325 -1.416,0.346 l 0,0 z"
   id="path3022-3_1_" />
			<path
   style="fill:none;stroke:#ffffff;stroke-width:0.75;stroke-linecap:round;stroke-linejoin:round"
   inkscape:connector-curvature="0"
   d="m 1199.342,709.086 c -0.119,-0.772 0.253,-1.69 0.651,-2.766 0.6,-1.612 1.983,-3.226 0.876,-8.341 -0.824,-3.813 -6.354,-0.793 -6.357,-0.276 0,0.517 0.25,2.62 -0.094,5.069 -0.446,3.195 2.034,5.898 4.891,5.621"
   id="path3024-5_1_" />
			<path
   style="fill:#ffffff;stroke:#ffffff;stroke-width:0.75"
   inkscape:connector-curvature="0"
   d="m 1198.025,697.625 c -0.025,0.177 0.322,0.647 0.777,0.712 0.453,0.063 0.841,-0.306 0.865,-0.482 0.023,-0.176 -0.324,-0.371 -0.777,-0.434 -0.452,-0.065 -0.84,0.029 -0.865,0.204 l 0,0 0,0 z"
   id="path3026-8_1_" />
			<path
   style="fill:#ffffff;stroke:#ffffff;stroke-width:0.75"
   inkscape:connector-curvature="0"
   d="m 1211.829,697.266 c 0.024,0.177 -0.323,0.647 -0.777,0.71 -0.453,0.064 -0.841,-0.305 -0.866,-0.48 -0.024,-0.178 0.323,-0.371 0.777,-0.435 0.453,-0.064 0.842,0.028 0.866,0.205 l 0,0 0,0 z"
   id="path3028-5_1_" />
			<path
   style="fill:none;stroke:#ffffff;stroke-width:0.75;stroke-linecap:round;stroke-linejoin:round"
   inkscape:connector-curvature="0"
   d="m 1213.451,696.044 c 0.075,1.385 -0.299,2.328 -0.346,3.803 -0.069,2.142 1.021,4.594 -0.622,7.05"
   id="path3030-6_1_" />
			<path
   style="fill:none;stroke:#ffffff;stroke-width:0.75;stroke-linecap:round;stroke-linejoin:round"
   inkscape:connector-curvature="0"
   d="M 1171.663,650.276"
   id="path3032-9_1_" />
			<g
   transform="matrix(0.2964182,0,0,0.2964182,-883.78418,422.24715)"
   id="orginal-8_1_">
			</g>
		</g>
	</g><g
   style="opacity:0.4"
   label="Ebene 1"
   groupmode="layer"
   id="layer1_7_"
   transform="translate(-357.20002,-443.51299)"
   clip-path="url(#clipPath4099)">
		<g
   id="g35053_3_">
			<path
   style="stroke:#000000;stroke-width:2.5"
   inkscape:connector-curvature="0"
   d="m 797.687,685.769 c 0.667,-5.54 0.465,-6.35 4.59,-5.453 l 1.045,0.094 c 3.172,0.142 7.318,-0.512 9.757,-1.645 5.247,-2.434 8.355,-6.498 3.187,-5.429 -11.801,2.432 -12.61,-1.562 -12.61,-1.562 12.457,-18.486 17.664,-41.95 13.17,-47.695 -12.265,-15.666 -33.488,-8.256 -33.844,-8.066 l -0.111,0.023 c -2.334,-0.484 -4.942,-0.773 -7.874,-0.82 -5.339,-0.088 -9.39,1.398 -12.462,3.729 0,0 -37.867,-15.598 -36.104,19.617 0.375,7.492 10.736,56.688 23.1,41.826 4.519,-5.433 8.885,-10.026 8.885,-10.026 2.169,1.44 4.763,2.175 7.485,1.911 l 0.21,-0.18 c -0.065,0.676 -0.037,1.334 0.086,2.116 -3.187,3.56 -2.25,4.183 -8.615,5.49 -6.443,1.328 -2.657,3.694 -0.188,4.313 2.994,0.747 9.925,1.81 14.607,-4.746 l -0.185,0.749 c 1.249,0.996 1.164,7.183 1.339,11.599 0.18,4.419 0.476,8.541 1.375,10.972 0.9,2.43 1.963,8.689 10.33,6.898 6.995,-1.501 12.34,-3.655 12.827,-23.715"
   id="path3010-1_5_" />
			<path
   style="fill:#336791;stroke:#000000;stroke-width:2.5;stroke-miterlimit:10"
   inkscape:connector-curvature="0"
   d="m 816.267,673.336 c -11.801,2.432 -12.61,-1.563 -12.61,-1.563 12.457,-18.484 17.664,-41.951 13.17,-47.695 -12.261,-15.664 -33.488,-8.254 -33.841,-8.064 l -0.114,0.021 c -2.334,-0.482 -4.942,-0.771 -7.874,-0.82 -5.339,-0.086 -9.39,1.4 -12.462,3.73 0,0 -37.867,-15.6 -36.104,19.617 0.375,7.492 10.736,56.688 23.1,41.826 4.519,-5.433 8.881,-10.026 8.881,-10.026 2.171,1.44 4.763,2.175 7.489,1.911 l 0.21,-0.18 c -0.067,0.676 -0.037,1.334 0.086,2.116 -3.187,3.56 -2.25,4.183 -8.615,5.49 -6.443,1.328 -2.657,3.694 -0.191,4.313 2.997,0.747 9.928,1.81 14.61,-4.746 l -0.188,0.749 c 1.247,0.996 2.125,6.5 1.977,11.484 -0.145,4.988 -0.243,8.412 0.741,11.086 0.982,2.672 1.963,8.689 10.33,6.898 6.995,-1.5 10.614,-5.383 11.123,-11.856 0.354,-4.608 1.167,-3.927 1.216,-8.043 l 0.652,-1.95 c 0.746,-6.241 0.117,-8.258 4.426,-7.32 l 1.045,0.096 c 3.172,0.142 7.321,-0.512 9.757,-1.645 5.243,-2.434 8.354,-6.498 3.186,-5.429 l 0,0 0,0 z"
   stroke-miterlimit="10"
   id="path3012-5_3_" />
			<path
   style="fill:none;stroke:#ffffff;stroke-width:2.5;stroke-linecap:round;stroke-linejoin:round"
   inkscape:connector-curvature="0"
   d="m 772.509,676.913 c -0.328,11.615 0.08,23.313 1.217,26.154 1.138,2.842 3.569,8.371 11.94,6.577 6.994,-1.497 9.537,-4.397 10.64,-10.8 0.814,-4.715 2.381,-17.796 2.581,-20.479"
   id="path3014-4_3_" />
			<path
   style="fill:none;stroke:#ffffff;stroke-width:2.5;stroke-linecap:round;stroke-linejoin:round"
   inkscape:connector-curvature="0"
   d="m 762.477,618.685 c 0,0 -37.895,-15.486 -36.132,19.729 0.376,7.493 10.74,56.688 23.101,41.831 4.517,-5.436 8.604,-9.697 8.604,-9.697"
   id="path3016-1_3_" />
			<path
   style="fill:none;stroke:#ffffff;stroke-width:2.5;stroke-linecap:round;stroke-linejoin:round"
   inkscape:connector-curvature="0"
   d="m 782.944,615.86 c -1.314,0.409 21.078,-8.184 33.8,8.072 4.495,5.742 -0.711,29.209 -13.173,47.697"
   id="path3018-3_3_" />
			<path
   style="fill:none;stroke:#ffffff;stroke-width:2.5;stroke-linecap:round;stroke-linejoin:bevel"
   inkscape:connector-curvature="0"
   d="m 803.571,671.63 c 0,0 0.811,3.995 12.613,1.558 5.167,-1.067 2.055,2.995 -3.186,5.433 -4.305,1.998 -13.951,2.508 -14.111,-0.254 -0.406,-7.118 5.079,-4.954 4.684,-6.737 -0.36,-1.609 -2.809,-3.188 -4.432,-7.119 -1.415,-3.433 -19.424,-29.756 4.993,-25.847 0.894,-0.184 -6.367,-23.222 -29.22,-23.599 -22.844,-0.373 -22.093,28.096 -22.093,28.096"
   id="path3020-7_3_" />
			<path
   style="fill:none;stroke:#ffffff;stroke-width:2.5;stroke-linecap:round;stroke-linejoin:round"
   inkscape:connector-curvature="0"
   d="m 766.111,674.063 c -3.184,3.558 -2.248,4.182 -8.615,5.493 -6.442,1.326 -2.656,3.689 -0.187,4.308 2.998,0.747 9.924,1.81 14.607,-4.746 1.425,-1.995 -0.01,-5.181 -1.968,-5.991 -0.947,-0.394 -2.212,-0.886 -3.837,0.936 l 0,0 z"
   id="path3022-3_3_" />
			<path
   style="fill:none;stroke:#ffffff;stroke-width:2.5;stroke-linecap:round;stroke-linejoin:round"
   inkscape:connector-curvature="0"
   d="m 765.906,674 c -0.323,-2.091 0.686,-4.579 1.765,-7.493 1.625,-4.368 5.373,-8.738 2.373,-22.598 -2.233,-10.329 -17.216,-2.149 -17.224,-0.748 -0.011,1.398 0.678,7.098 -0.254,13.732 -1.208,8.66 5.512,15.982 13.25,15.232"
   id="path3024-5_3_" />
			<path
   style="fill:#ffffff;stroke:#ffffff;stroke-width:2.5"
   inkscape:connector-curvature="0"
   d="m 762.338,642.949 c -0.067,0.479 0.874,1.754 2.107,1.927 1.227,0.17 2.278,-0.826 2.344,-1.305 0.063,-0.479 -0.879,-1.004 -2.107,-1.177 -1.226,-0.171 -2.276,0.08 -2.344,0.555 l 0,0 0,0 z"
   id="path3026-8_3_" />
			<path
   style="fill:#ffffff;stroke:#ffffff;stroke-width:2.5"
   inkscape:connector-curvature="0"
   d="m 799.738,641.976 c 0.065,0.479 -0.877,1.754 -2.107,1.924 -1.226,0.173 -2.277,-0.824 -2.346,-1.303 -0.065,-0.48 0.875,-1.006 2.106,-1.177 1.227,-0.171 2.281,0.078 2.347,0.556 l 0,0 0,0 z"
   id="path3028-5_3_" />
			<path
   style="fill:none;stroke:#ffffff;stroke-width:2.5;stroke-linecap:round;stroke-linejoin:round"
   inkscape:connector-curvature="0"
   d="m 804.132,638.664 c 0.204,3.753 -0.81,6.308 -0.936,10.304 -0.188,5.803 2.767,12.447 -1.686,19.101"
   id="path3030-6_3_" />
			<path
   style="fill:none;stroke:#ffffff;stroke-width:2.5;stroke-linecap:round;stroke-linejoin:round"
   inkscape:connector-curvature="0"
   d="M 690.914,514.667"
   id="path3032-9_3_" />
			<g
   transform="matrix(0.2964182,0,0,0.2964182,-883.78418,422.24715)"
   id="orginal-8_3_">
			</g>
		</g>
	</g><image
   sodipodi:absref="/home/abaumgartner/presentation PG/2D636612.jpg"
   xlink:href="2D636612.jpg"
   y="336.48688"
   x="0.79986572"
   style="opacity:0.5;overflow:visible"
   overflow="visible"
   width="294.99301"
   height="9.0016003"
   id="image275">
	</image><image
   sodipodi:absref="/home/abaumgartner/presentation PG/2D63661D.jpg"
   xlink:href="2D63661D.jpg"
   y="334.48688"
   x="384.79987"
   style="opacity:0.5;overflow:visible"
   overflow="visible"
   width="515.99078"
   height="9.0016003"
   id="image277">
	</image><image
   sodipodi:absref="/home/abaumgartner/presentation PG/2D63661E.jpg"
   xlink:href="2D63661E.jpg"
   y="95.486908"
   x="602.79987"
   style="opacity:0.5;overflow:visible"
   overflow="visible"
   width="294.99301"
   height="9.0016003"
   id="image279">
	</image>

<g
   id="Calque_1"
   transform="translate(-344.05017,-225.22546)">
</g>
<g
   id="Calque_2"
   transform="translate(-344.05017,-225.22546)">
	
		<linearGradient
   id="rect24376-5-32_1_"
   gradientUnits="userSpaceOnUse"
   x1="1024.0146"
   y1="254.2285"
   x2="1134.7266"
   y2="254.2285">
		<stop
   offset="0"
   style="stop-color:#306998"
   id="stop305" />
		<stop
   offset="1"
   style="stop-color:#306998"
   id="stop307" />
	</linearGradient>
	
		
	<linearGradient
   id="rect24376-5-32_8_"
   gradientUnits="userSpaceOnUse"
   x1="789.01459"
   y1="700.539"
   x2="899.7265"
   y2="700.539"
   gradientTransform="translate(-13.149851,-218.28753)">
		<stop
   offset="0"
   style="stop-color:#306998"
   id="stop311" />
		<stop
   offset="1"
   style="stop-color:#306998"
   id="stop313" />
	</linearGradient>
	
		<rect
   id="rect24376-5-32_3_"
   x="775.86517"
   y="426.98846"
   width="110.712"
   height="110.526"
   style="opacity:0.8;fill:url(#rect24376-5-32_8_);stroke:#050000;stroke-width:2.49600005" />
	
		
	
	
	
	
	
		
	

	
	
	
	
	<linearGradient
   id="rect5947_1_"
   gradientUnits="userSpaceOnUse"
   x1="958.10492"
   y1="49.561501"
   x2="1256.0098"
   y2="49.561501">
		<stop
   offset="0.0182"
   style="stop-color:#5A9FD4"
   id="stop331" />
		<stop
   offset="1"
   style="stop-color:#5A9FD4"
   id="stop333" />
	</linearGradient>
	
		
	
	
		
	
	
	
	
	

	
	
	
	
	
	
	
	
	
	
	
	
	
	
	
	
		<rect
   id="rect24376-3_3_"
   x="775.24817"
   y="426.98846"
   enable-background="new    "
   width="110.711"
   height="29.125999"
   style="opacity:0.66000001;fill:#f2f2f2;stroke:#050000;stroke-width:2" />
	<path
   id="path24378-07_3_"
   connector-curvature="0"
   d="m 794.31815,456.67947 v 80.619"
   inkscape:connector-curvature="0"
   style="fill:none;stroke:#000000" />
	<path
   id="path24378-07_1_"
   connector-curvature="0"
   d="m 1026.6521,456.67947 v 80.619"
   inkscape:connector-curvature="0"
   style="fill:none;stroke:#000000" />
	<path
   id="path24380-03_3_"
   connector-curvature="0"
   d="m 830.77315,455.94247 -0.593,82.584"
   inkscape:connector-curvature="0"
   style="fill:none;stroke:#000000" />
	<path
   id="path24384-05_3_"
   connector-curvature="0"
   d="m 853.83815,455.94247 -1.191,81.799"
   inkscape:connector-curvature="0"
   style="fill:none;stroke:#000000;stroke-width:1.01979995" />
	<path
   id="path24386-7_3_"
   connector-curvature="0"
   d="m 872.28815,454.96047 0.594,82.584"
   inkscape:connector-curvature="0"
   style="fill:none;stroke:#000000" />
	<text
   font-size="19.7187"
   id="text403"
   x="799.88916"
   y="447.98389"
   style="font-size:19.71870041px;font-family:MyriadPro-Regular"><tspan
     style="font-style:normal;font-variant:normal;font-weight:normal;font-stretch:normal;font-family:DejaVu Sans;-inkscape-font-specification:DejaVu Sans"
     id="tspan3505">Users</tspan></text>



	<linearGradient
   id="rect5947_6_"
   gradientUnits="userSpaceOnUse"
   x1="958.10492"
   y1="491.3725"
   x2="1256.0098"
   y2="491.3725"
   gradientTransform="translate(-13.149851,-218.28753)">
		<stop
   offset="0.0182"
   style="stop-color:#5A9FD4"
   id="stop406" />
		<stop
   offset="1"
   style="stop-color:#5A9FD4"
   id="stop408" />
	</linearGradient>
	
		<rect
   id="rect5947_3_"
   x="944.95514"
   y="225.35046"
   width="297.905"
   height="95.470001"
   style="fill:url(#rect5947_6_);stroke:#ffffff;stroke-width:0.25" />
	<g
   id="g2303_1_"
   transform="translate(-13.149851,-218.28753)">
		<path
   id="path46_1_"
   d="m 1077.824,490.246 c 0,-6.953 -1.982,-10.523 -5.948,-10.719 -1.577,-0.075 -3.118,0.177 -4.617,0.759 -1.196,0.428 -2.001,0.852 -2.425,1.28 v 16.598 c 2.537,1.592 4.789,2.332 6.754,2.215 4.156,-0.275 6.236,-3.65 6.236,-10.133 z m 4.893,0.288 c 0,3.533 -0.829,6.465 -2.495,8.797 -1.857,2.64 -4.431,3.999 -7.722,4.073 -2.48,0.079 -5.036,-0.698 -7.666,-2.327 v 15.085 l -4.254,-1.518 V 481.16 c 0.698,-0.856 1.596,-1.592 2.686,-2.215 2.531,-1.476 5.608,-2.234 9.229,-2.271 l 0.061,0.061 c 3.31,-0.042 5.86,1.317 7.651,4.073 1.672,2.526 2.51,5.765 2.51,9.726 z"
   inkscape:connector-curvature="0"
   style="fill:#646464" />
		<path
   id="path48_1_"
   d="m 1108.715,500.435 c 0,4.738 -0.475,8.019 -1.424,9.844 -0.953,1.824 -2.769,3.281 -5.45,4.366 -2.173,0.855 -4.524,1.322 -7.046,1.4 l -0.703,-2.681 c 2.564,-0.349 4.37,-0.698 5.418,-1.048 2.062,-0.697 3.477,-1.768 4.254,-3.202 0.623,-1.168 0.93,-3.398 0.93,-6.697 v -1.108 c -2.908,1.322 -5.957,1.979 -9.145,1.979 -2.096,0 -3.943,-0.656 -5.535,-1.979 -1.787,-1.438 -2.68,-3.262 -2.68,-5.473 v -17.705 l 4.254,-1.457 v 17.821 c 0,1.904 0.614,3.37 1.842,4.398 1.23,1.029 2.821,1.522 4.771,1.485 1.95,-0.042 4.04,-0.796 6.26,-2.271 v -20.791 h 4.254 v 23.119 z"
   inkscape:connector-curvature="0"
   style="fill:#646464" />
		<path
   id="path50_1_"
   d="m 1125.322,503.171 c -0.508,0.042 -0.973,0.06 -1.4,0.06 -2.406,0 -4.282,-0.572 -5.623,-1.722 -1.336,-1.15 -2.006,-2.737 -2.006,-4.762 v -16.756 h -2.914 v -2.676 h 2.914 v -7.107 l 4.25,-1.513 v 8.62 h 4.779 v 2.676 h -4.779 v 16.639 c 0,1.597 0.428,2.728 1.283,3.389 0.736,0.544 1.904,0.856 3.496,0.935 v 2.217 z"
   inkscape:connector-curvature="0"
   style="fill:#646464" />
		<path
   id="path52_1_"
   d="m 1151.08,502.822 h -4.254 v -16.42 c 0,-1.671 -0.392,-3.109 -1.168,-4.31 -0.899,-1.359 -2.146,-2.039 -3.748,-2.039 -1.949,0 -4.389,1.029 -7.316,3.086 v 19.683 h -4.254 v -39.25 l 4.254,-1.34 v 17.877 c 2.719,-1.978 5.688,-2.97 8.913,-2.97 2.253,0 4.077,0.759 5.474,2.271 1.4,1.512 2.1,3.398 2.1,5.65 v 17.762 l -10e-4,0 z"
   inkscape:connector-curvature="0"
   style="fill:#646464" />
		<path
   id="path54_1_"
   d="m 1173.69,489.576 c 0,-2.671 -0.507,-4.878 -1.517,-6.623 -1.201,-2.127 -3.068,-3.249 -5.591,-3.365 -4.663,0.27 -6.991,3.612 -6.991,10.016 0,2.937 0.484,5.39 1.463,7.359 1.246,2.509 3.117,3.747 5.612,3.705 4.684,-0.038 7.024,-3.734 7.024,-11.092 z m 4.66,0.027 c 0,3.803 -0.973,6.968 -2.914,9.495 -2.136,2.83 -5.087,4.25 -8.853,4.25 -3.732,0 -6.642,-1.419 -8.741,-4.25 -1.902,-2.527 -2.852,-5.692 -2.852,-9.495 0,-3.574 1.027,-6.581 3.085,-9.029 2.173,-2.597 5.031,-3.9 8.563,-3.9 3.533,0 6.41,1.303 8.625,3.9 2.057,2.448 3.087,5.455 3.087,9.029 z"
   inkscape:connector-curvature="0"
   style="fill:#646464" />
		<path
   id="path56_1_"
   d="m 1202.739,502.822 h -4.255 v -17.351 c 0,-1.904 -0.572,-3.388 -1.717,-4.459 -1.146,-1.066 -2.672,-1.583 -4.576,-1.541 -2.02,0.038 -3.941,0.699 -5.766,1.979 v 21.373 h -4.256 v -21.899 c 2.449,-1.782 4.702,-2.946 6.759,-3.49 1.94,-0.507 3.653,-0.759 5.13,-0.759 1.01,0 1.959,0.098 2.854,0.293 1.67,0.386 3.029,1.103 4.076,2.155 1.168,1.164 1.751,2.56 1.751,4.194 v 19.505 z"
   inkscape:connector-curvature="0"
   style="fill:#646464" />
		
			<linearGradient
   id="path1948_3_"
   gradientUnits="userSpaceOnUse"
   x1="1211.2744"
   y1="360.4902"
   x2="1263.3342"
   y2="315.69958"
   gradientTransform="matrix(0.5625,0,0,-0.568,309.6953,670.0128)">
			<stop
   offset="0"
   style="stop-color:#5A9FD4"
   id="stop419" />
			<stop
   offset="1"
   style="stop-color:#306998"
   id="stop421" />
		</linearGradient>
		<path
   id="path1948_1_"
   d="m 1018.563,463.729 c -2.189,0.01 -4.279,0.197 -6.118,0.522 -5.418,0.958 -6.402,2.961 -6.402,6.655 v 4.88 h 12.804 v 1.626 h -12.804 -4.805 c -3.721,0 -6.979,2.236 -7.999,6.491 -1.176,4.877 -1.228,7.92 0,13.012 0.91,3.791 3.083,6.491 6.805,6.491 h 4.402 v -5.85 c 0,-4.226 3.657,-7.954 7.999,-7.954 h 12.789 c 3.56,0 6.401,-2.931 6.401,-6.506 v -12.192 c 0,-3.469 -2.927,-6.076 -6.401,-6.655 -2.2,-0.364 -4.482,-0.53 -6.671,-0.52 z m -6.923,3.924 c 1.322,0 2.402,1.098 2.402,2.447 0,1.345 -1.08,2.433 -2.402,2.433 -1.328,0 -2.403,-1.088 -2.403,-2.433 0,-1.349 1.075,-2.447 2.403,-2.447 z"
   style="fill:url(#path1948_3_);stroke:#ffffff"
   inkscape:connector-curvature="0" />
		
			<linearGradient
   id="path1950_3_"
   gradientUnits="userSpaceOnUse"
   x1="1283.459"
   y1="288.5932"
   x2="1264.8696"
   y2="314.89401"
   gradientTransform="matrix(0.5625,0,0,-0.568,309.6953,670.0128)">
			<stop
   offset="0"
   style="stop-color:#FFD43B"
   id="stop425" />
			<stop
   offset="1"
   style="stop-color:#FFE873"
   id="stop427" />
		</linearGradient>
		<path
   id="path1950_1_"
   d="m 1033.232,477.413 v 5.686 c 0,4.408 -3.737,8.118 -7.998,8.118 h -12.789 c -3.503,0 -6.402,2.998 -6.402,6.506 v 12.192 c 0,3.469 3.017,5.51 6.402,6.506 4.053,1.191 7.939,1.406 12.789,0 3.223,-0.934 6.401,-2.813 6.401,-6.506 v -4.88 h -12.788 v -1.626 h 12.788 6.402 c 3.721,0 5.107,-2.596 6.402,-6.491 1.336,-4.01 1.28,-7.867 0,-13.012 -0.92,-3.704 -2.676,-6.491 -6.402,-6.491 h -4.805 z m -7.192,30.874 c 1.327,0 2.402,1.088 2.402,2.432 0,1.35 -1.075,2.447 -2.402,2.447 -1.323,0 -2.402,-1.098 -2.402,-2.447 0,-1.345 1.079,-2.432 2.402,-2.432 z"
   style="fill:url(#path1950_3_);stroke:#ffffff"
   inkscape:connector-curvature="0" />
		<path
   id="text3004_1_"
   d="m 1211.022,473.523 h 0.746 v -4.678 h 1.768 v -0.558 h -4.28 v 0.558 h 1.767 v 4.678 m 3.173,0 h 0.639 v -4.272 l 1.383,4.272 h 0.709 l 1.441,-4.257 v 4.258 h 0.695 v -5.235 h -0.92 l -1.574,4.485 -1.344,-4.485 h -1.029 v 5.234"
   inkscape:connector-curvature="0"
   style="fill:#646464" />
		
			<radialGradient
   id="path1894_3_"
   cx="106.3036"
   cy="489.31589"
   r="13.8663"
   gradientTransform="matrix(0,-0.2399,-1.0547,0,1535.0737,550.2095)"
   gradientUnits="userSpaceOnUse">
			<stop
   offset="0"
   style="stop-color:#B8B8B8;stop-opacity:0.498"
   id="stop432" />
			<stop
   offset="1"
   style="stop-color:#7F7F7F;stop-opacity:0"
   id="stop434" />
		</radialGradient>
		<path
   id="path1894_1_"
   enable-background="new    "
   d="m 1036.149,524.707 c 0,1.838 -7.681,3.327 -17.157,3.327 -9.476,0 -17.158,-1.489 -17.158,-3.327 0,-1.837 7.682,-3.326 17.158,-3.326 9.476,0 17.157,1.489 17.157,3.326 l 0,0 z"
   style="opacity:0.44380002;fill:url(#path1894_3_)"
   inkscape:connector-curvature="0" />
	</g>
	<path
   d="m 1216.5781,437.76347 c 0.01,0.018 0.013,0.039 0.019,0.061 -0.01,-0.023 -0.013,-0.044 -0.02,-0.064 0,-10e-4 10e-4,10e-4 10e-4,0.003 z"
   id="path437"
   inkscape:connector-curvature="0"
   style="fill:#00ff00" />
	<circle
   cx="1232.827"
   cy="654.98798"
   r="3.9949999"
   id="circle439"
   sodipodi:cx="1232.827"
   sodipodi:cy="654.98798"
   sodipodi:rx="3.9949999"
   sodipodi:ry="3.9949999"
   transform="translate(-13.149851,-218.28753)"
   style="fill:none"
   d="m 1236.822,654.98798 c 0,2.20637 -1.7886,3.995 -3.995,3.995 -2.2064,0 -3.995,-1.78863 -3.995,-3.995 0,-2.20638 1.7886,-3.995 3.995,-3.995 2.2064,0 3.995,1.78862 3.995,3.995 z" />
	<circle
   cx="1232.827"
   cy="654.98798"
   r="3.9949999"
   id="circle441"
   sodipodi:cx="1232.827"
   sodipodi:cy="654.98798"
   sodipodi:rx="3.9949999"
   sodipodi:ry="3.9949999"
   transform="translate(-13.149851,-218.28753)"
   style="fill:none"
   d="m 1236.822,654.98798 c 0,2.20637 -1.7886,3.995 -3.995,3.995 -2.2064,0 -3.995,-1.78863 -3.995,-3.995 0,-2.20638 1.7886,-3.995 3.995,-3.995 2.2064,0 3.995,1.78862 3.995,3.995 z" />
	<circle
   cx="1232.827"
   cy="654.98798"
   r="3.9949999"
   id="circle443"
   sodipodi:cx="1232.827"
   sodipodi:cy="654.98798"
   sodipodi:rx="3.9949999"
   sodipodi:ry="3.9949999"
   transform="translate(-13.149851,-218.28753)"
   style="fill:none"
   d="m 1236.822,654.98798 c 0,2.20637 -1.7886,3.995 -3.995,3.995 -2.2064,0 -3.995,-1.78863 -3.995,-3.995 0,-2.20638 1.7886,-3.995 3.995,-3.995 2.2064,0 3.995,1.78862 3.995,3.995 z" />
	<circle
   cx="1232.827"
   cy="654.98798"
   r="3.9949999"
   id="circle445"
   sodipodi:cx="1232.827"
   sodipodi:cy="654.98798"
   sodipodi:rx="3.9949999"
   sodipodi:ry="3.9949999"
   transform="translate(-13.149851,-218.28753)"
   style="fill:none"
   d="m 1236.822,654.98798 c 0,2.20637 -1.7886,3.995 -3.995,3.995 -2.2064,0 -3.995,-1.78863 -3.995,-3.995 0,-2.20638 1.7886,-3.995 3.995,-3.995 2.2064,0 3.995,1.78862 3.995,3.995 z" />
	<circle
   cx="1232.827"
   cy="654.98798"
   r="3.9949999"
   id="circle447"
   sodipodi:cx="1232.827"
   sodipodi:cy="654.98798"
   sodipodi:rx="3.9949999"
   sodipodi:ry="3.9949999"
   transform="translate(-13.149851,-218.28753)"
   style="fill:none"
   d="m 1236.822,654.98798 c 0,2.20637 -1.7886,3.995 -3.995,3.995 -2.2064,0 -3.995,-1.78863 -3.995,-3.995 0,-2.20638 1.7886,-3.995 3.995,-3.995 2.2064,0 3.995,1.78862 3.995,3.995 z" />
	<circle
   cx="1232.827"
   cy="654.98798"
   r="3.9949999"
   id="circle449"
   sodipodi:cx="1232.827"
   sodipodi:cy="654.98798"
   sodipodi:rx="3.9949999"
   sodipodi:ry="3.9949999"
   transform="translate(-13.149851,-218.28753)"
   style="fill:none"
   d="m 1236.822,654.98798 c 0,2.20637 -1.7886,3.995 -3.995,3.995 -2.2064,0 -3.995,-1.78863 -3.995,-3.995 0,-2.20638 1.7886,-3.995 3.995,-3.995 2.2064,0 3.995,1.78862 3.995,3.995 z" />
	<path
   d="m 1243.7101,457.74847 0,-0.017 c 0.038,0.002 0.075,0.016 0.114,0.016 l -0.112,10e-4 z"
   id="path451"
   inkscape:connector-curvature="0"
   style="fill:none" />
	<path
   d="m 1243.8231,457.74747 h 0.065 c -0.01,0 -0.017,0.006 -0.027,0.006 -0.013,0 -0.025,-0.006 -0.038,-0.006 z"
   id="path453"
   inkscape:connector-curvature="0"
   style="fill:#999999" />
	<path
   d="m 1216.6201,437.89947 c -0.018,-0.045 -0.026,-0.093 -0.042,-0.137 0.013,0.046 0.03,0.089 0.042,0.137 z"
   id="path455"
   inkscape:connector-curvature="0"
   style="fill:none" />
	<path
   d="m 1219.6681,433.40947 c 1.814,-0.004 3.293,1.469 3.298,3.282 0,1.813 -1.469,3.294 -3.281,3.298 -0.524,0.001 -1.014,-0.133 -1.453,-0.349 0.04,-1.768 -0.458,-3.276 -1.526,-4.331 0.523,-1.115 1.648,-1.896 2.962,-1.9 z"
   id="path457"
   inkscape:connector-curvature="0"
   style="fill:none" />
	<path
   id="path24760-16_6_"
   connector-curvature="0"
   d="m 1078.3801,395.14547 -6.519,-6.519 6.519,22.816 6.521,-22.816 -6.521,6.519 z"
   inkscape:connector-curvature="0"
   style="stroke:#000000" />
	<line
   x1="1078.5961"
   y1="320.02448"
   x2="1078.5961"
   y2="395.28143"
   id="line460"
   style="fill:none;stroke:#000000;stroke-width:0.80000001" />
	<path
   id="path24760-16_5_"
   connector-curvature="0"
   d="m 1111.8821,336.32347 6.519,6.519 -6.519,-22.817 -6.521,22.817 6.521,-6.519 z"
   inkscape:connector-curvature="0"
   style="stroke:#000000" />
	<line
   x1="1111.6661"
   y1="411.44244"
   x2="1111.6661"
   y2="336.18744"
   id="line463"
   style="fill:none;stroke:#000000;stroke-width:0.80000001" />
	
	
	<path
   id="path24760_3_"
   d="m 908.68715,485.01047 4,-4 -14,4 14,4 -4,-4 z"
   inkscape:connector-curvature="0"
   style="stroke:#000000" />
	<polyline
   points="1011.333,703.675 957.76,703.675 917.824,703.675  "
   id="polyline469"
   transform="translate(-13.149851,-218.28753)"
   style="fill:none;stroke:#000000;stroke-width:0.80000001" />
	
	
	
</g>
</svg>